<svg width="726" height="739" viewBox="0 0 726 739" fill="none" xmlns="http://www.w3.org/2000/svg">
<g filter="url(#filter0_d_302_324)">
<ellipse cx="363" cy="369.5" rx="327" ry="333.5" fill="url(#paint0_radial_302_324)" shape-rendering="crispEdges"/>
<path d="M687.5 369.5C687.5 552.353 542.17 700.5 363 700.5C183.83 700.5 38.5 552.353 38.5 369.5C38.5 186.647 183.83 38.5 363 38.5C542.17 38.5 687.5 186.647 687.5 369.5Z" stroke="#FFF7EB" stroke-width="5" shape-rendering="crispEdges"/>
</g>
<path d="M111.578 264L110.461 260.828H106.094L104.977 264H103L107.25 252.531H109.328L113.57 264H111.578ZM109.977 259.219L108.891 256.094C108.849 255.958 108.789 255.768 108.711 255.523C108.633 255.273 108.555 255.021 108.477 254.766C108.398 254.505 108.333 254.286 108.281 254.109C108.229 254.323 108.164 254.562 108.086 254.828C108.013 255.089 107.94 255.333 107.867 255.562C107.799 255.792 107.747 255.969 107.711 256.094L106.617 259.219H109.977ZM118.289 252.578C119.273 252.578 120.086 252.698 120.727 252.938C121.372 253.177 121.852 253.542 122.164 254.031C122.482 254.521 122.641 255.143 122.641 255.898C122.641 256.461 122.536 256.94 122.328 257.336C122.12 257.732 121.846 258.06 121.508 258.32C121.169 258.581 120.807 258.789 120.422 258.945L123.664 264H121.547L118.789 259.422H116.953V264H115.078V252.578H118.289ZM118.164 254.141H116.953V257.875H118.25C119.12 257.875 119.75 257.714 120.141 257.391C120.536 257.068 120.734 256.591 120.734 255.961C120.734 255.299 120.523 254.831 120.102 254.555C119.685 254.279 119.039 254.141 118.164 254.141ZM129.258 264H127.375V254.172H124.031V252.578H132.594V254.172H129.258V264ZM134.344 264V252.578H136.219V264H134.344ZM145.828 260.891C145.828 261.568 145.661 262.151 145.328 262.641C145 263.13 144.526 263.505 143.906 263.766C143.292 264.026 142.557 264.156 141.703 264.156C141.286 264.156 140.888 264.133 140.508 264.086C140.128 264.039 139.768 263.971 139.43 263.883C139.096 263.789 138.792 263.677 138.516 263.547V261.781C138.979 261.984 139.497 262.169 140.07 262.336C140.643 262.497 141.227 262.578 141.82 262.578C142.305 262.578 142.706 262.516 143.023 262.391C143.346 262.26 143.586 262.078 143.742 261.844C143.898 261.604 143.977 261.326 143.977 261.008C143.977 260.669 143.885 260.383 143.703 260.148C143.521 259.914 143.245 259.701 142.875 259.508C142.51 259.31 142.052 259.099 141.5 258.875C141.125 258.724 140.766 258.552 140.422 258.359C140.083 258.167 139.781 257.94 139.516 257.68C139.25 257.419 139.039 257.112 138.883 256.758C138.732 256.398 138.656 255.977 138.656 255.492C138.656 254.846 138.81 254.294 139.117 253.836C139.43 253.378 139.867 253.026 140.43 252.781C140.997 252.536 141.659 252.414 142.414 252.414C143.013 252.414 143.576 252.477 144.102 252.602C144.633 252.727 145.154 252.904 145.664 253.133L145.07 254.641C144.602 254.448 144.146 254.294 143.703 254.18C143.266 254.065 142.818 254.008 142.359 254.008C141.964 254.008 141.628 254.068 141.352 254.188C141.076 254.307 140.865 254.477 140.719 254.695C140.578 254.909 140.508 255.164 140.508 255.461C140.508 255.794 140.589 256.076 140.75 256.305C140.917 256.529 141.172 256.734 141.516 256.922C141.865 257.109 142.312 257.318 142.859 257.547C143.49 257.807 144.023 258.081 144.461 258.367C144.904 258.654 145.242 258.997 145.477 259.398C145.711 259.794 145.828 260.292 145.828 260.891ZM151.992 264H150.109V254.172H146.766V252.578H155.328V254.172H151.992V264ZM157.078 264V252.578H158.953V264H157.078ZM166.836 254.008C166.289 254.008 165.799 254.107 165.367 254.305C164.94 254.503 164.578 254.789 164.281 255.164C163.984 255.534 163.758 255.984 163.602 256.516C163.445 257.042 163.367 257.635 163.367 258.297C163.367 259.182 163.492 259.945 163.742 260.586C163.992 261.221 164.372 261.711 164.883 262.055C165.393 262.393 166.039 262.562 166.82 262.562C167.305 262.562 167.776 262.516 168.234 262.422C168.693 262.328 169.167 262.201 169.656 262.039V263.633C169.193 263.815 168.724 263.948 168.25 264.031C167.776 264.115 167.229 264.156 166.609 264.156C165.443 264.156 164.474 263.914 163.703 263.43C162.938 262.945 162.365 262.263 161.984 261.383C161.609 260.503 161.422 259.471 161.422 258.289C161.422 257.424 161.542 256.633 161.781 255.914C162.021 255.195 162.37 254.576 162.828 254.055C163.286 253.529 163.852 253.125 164.523 252.844C165.201 252.557 165.974 252.414 166.844 252.414C167.417 252.414 167.979 252.479 168.531 252.609C169.089 252.734 169.604 252.914 170.078 253.148L169.422 254.695C169.026 254.508 168.612 254.346 168.18 254.211C167.747 254.076 167.299 254.008 166.836 254.008ZM181.133 254.008C180.586 254.008 180.096 254.107 179.664 254.305C179.237 254.503 178.875 254.789 178.578 255.164C178.281 255.534 178.055 255.984 177.898 256.516C177.742 257.042 177.664 257.635 177.664 258.297C177.664 259.182 177.789 259.945 178.039 260.586C178.289 261.221 178.669 261.711 179.18 262.055C179.69 262.393 180.336 262.562 181.117 262.562C181.602 262.562 182.073 262.516 182.531 262.422C182.99 262.328 183.464 262.201 183.953 262.039V263.633C183.49 263.815 183.021 263.948 182.547 264.031C182.073 264.115 181.526 264.156 180.906 264.156C179.74 264.156 178.771 263.914 178 263.43C177.234 262.945 176.661 262.263 176.281 261.383C175.906 260.503 175.719 259.471 175.719 258.289C175.719 257.424 175.839 256.633 176.078 255.914C176.318 255.195 176.667 254.576 177.125 254.055C177.583 253.529 178.148 253.125 178.82 252.844C179.497 252.557 180.271 252.414 181.141 252.414C181.714 252.414 182.276 252.479 182.828 252.609C183.385 252.734 183.901 252.914 184.375 253.148L183.719 254.695C183.323 254.508 182.909 254.346 182.477 254.211C182.044 254.076 181.596 254.008 181.133 254.008ZM189.617 252.578C190.602 252.578 191.414 252.698 192.055 252.938C192.701 253.177 193.18 253.542 193.492 254.031C193.81 254.521 193.969 255.143 193.969 255.898C193.969 256.461 193.865 256.94 193.656 257.336C193.448 257.732 193.174 258.06 192.836 258.32C192.497 258.581 192.135 258.789 191.75 258.945L194.992 264H192.875L190.117 259.422H188.281V264H186.406V252.578H189.617ZM189.492 254.141H188.281V257.875H189.578C190.448 257.875 191.078 257.714 191.469 257.391C191.865 257.068 192.062 256.591 192.062 255.961C192.062 255.299 191.852 254.831 191.43 254.555C191.013 254.279 190.367 254.141 189.492 254.141ZM203.094 264H196.625V252.578H203.094V254.156H198.5V257.258H202.805V258.828H198.5V262.414H203.094V264ZM212.641 264L211.523 260.828H207.156L206.039 264H204.062L208.312 252.531H210.391L214.633 264H212.641ZM211.039 259.219L209.953 256.094C209.911 255.958 209.852 255.768 209.773 255.523C209.695 255.273 209.617 255.021 209.539 254.766C209.461 254.505 209.396 254.286 209.344 254.109C209.292 254.323 209.227 254.562 209.148 254.828C209.076 255.089 209.003 255.333 208.93 255.562C208.862 255.792 208.81 255.969 208.773 256.094L207.68 259.219H211.039ZM220.102 264H218.219V254.172H214.875V252.578H223.438V254.172H220.102V264ZM225.188 264V252.578H227.062V264H225.188ZM238.547 252.578L234.555 264H232.57L228.578 252.578H230.5L232.906 259.734C232.979 259.943 233.057 260.195 233.141 260.492C233.229 260.789 233.31 261.089 233.383 261.391C233.461 261.693 233.521 261.961 233.562 262.195C233.604 261.961 233.661 261.693 233.734 261.391C233.812 261.089 233.893 260.789 233.977 260.492C234.06 260.195 234.138 259.94 234.211 259.727L236.625 252.578H238.547ZM240.047 264V252.578H241.922V264H240.047ZM248.898 264H247.016V254.172H243.672V252.578H252.234V254.172H248.898V264ZM257.219 257.789L259.93 252.578H261.953L258.156 259.562V264H256.289V259.633L252.484 252.578H254.523L257.219 257.789Z" fill="black"/>
<path d="M298.689 579.891C298.689 580.568 298.522 581.151 298.189 581.641C297.861 582.13 297.387 582.505 296.767 582.766C296.153 583.026 295.418 583.156 294.564 583.156C294.147 583.156 293.749 583.133 293.369 583.086C292.989 583.039 292.629 582.971 292.291 582.883C291.957 582.789 291.653 582.677 291.377 582.547V580.781C291.84 580.984 292.358 581.169 292.931 581.336C293.504 581.497 294.088 581.578 294.681 581.578C295.166 581.578 295.567 581.516 295.884 581.391C296.207 581.26 296.447 581.078 296.603 580.844C296.759 580.604 296.838 580.326 296.838 580.008C296.838 579.669 296.746 579.383 296.564 579.148C296.382 578.914 296.106 578.701 295.736 578.508C295.371 578.31 294.913 578.099 294.361 577.875C293.986 577.724 293.627 577.552 293.283 577.359C292.944 577.167 292.642 576.94 292.377 576.68C292.111 576.419 291.9 576.112 291.744 575.758C291.593 575.398 291.517 574.977 291.517 574.492C291.517 573.846 291.671 573.294 291.978 572.836C292.291 572.378 292.728 572.026 293.291 571.781C293.858 571.536 294.52 571.414 295.275 571.414C295.874 571.414 296.436 571.477 296.963 571.602C297.494 571.727 298.015 571.904 298.525 572.133L297.931 573.641C297.463 573.448 297.007 573.294 296.564 573.18C296.127 573.065 295.679 573.008 295.22 573.008C294.825 573.008 294.489 573.068 294.213 573.188C293.936 573.307 293.726 573.477 293.58 573.695C293.439 573.909 293.369 574.164 293.369 574.461C293.369 574.794 293.45 575.076 293.611 575.305C293.778 575.529 294.033 575.734 294.377 575.922C294.726 576.109 295.173 576.318 295.72 576.547C296.351 576.807 296.884 577.081 297.322 577.367C297.765 577.654 298.103 577.997 298.338 578.398C298.572 578.794 298.689 579.292 298.689 579.891ZM304.853 583H302.97V573.172H299.627V571.578H308.189V573.172H304.853V583ZM318.908 571.578V578.969C318.908 579.766 318.739 580.479 318.4 581.109C318.067 581.74 317.561 582.24 316.884 582.609C316.207 582.974 315.356 583.156 314.33 583.156C312.866 583.156 311.752 582.773 310.986 582.008C310.226 581.237 309.845 580.214 309.845 578.938V571.578H311.72V578.773C311.72 579.727 311.944 580.43 312.392 580.883C312.84 581.336 313.509 581.562 314.4 581.562C315.015 581.562 315.515 581.456 315.9 581.242C316.291 581.023 316.577 580.706 316.759 580.289C316.947 579.867 317.041 579.359 317.041 578.766V571.578H318.908ZM331.361 583H329.056L323.463 573.883H323.392C323.413 574.19 323.431 574.516 323.447 574.859C323.468 575.203 323.483 575.557 323.494 575.922C323.509 576.286 323.522 576.656 323.533 577.031V583H321.83V571.578H324.119L329.705 580.633H329.759C329.749 580.367 329.736 580.062 329.72 579.719C329.705 579.375 329.689 579.021 329.673 578.656C329.663 578.286 329.655 577.93 329.65 577.586V571.578H331.361V583ZM343.892 583H341.588L335.994 573.883H335.923C335.944 574.19 335.963 574.516 335.978 574.859C335.999 575.203 336.015 575.557 336.025 575.922C336.041 576.286 336.054 576.656 336.064 577.031V583H334.361V571.578H336.65L342.236 580.633H342.291C342.28 580.367 342.267 580.062 342.252 579.719C342.236 579.375 342.22 579.021 342.205 578.656C342.194 578.286 342.186 577.93 342.181 577.586V571.578H343.892V583ZM346.892 583V571.578H348.767V583H346.892ZM361.314 583H359.009L353.416 573.883H353.345C353.366 574.19 353.384 574.516 353.4 574.859C353.421 575.203 353.436 575.557 353.447 575.922C353.463 576.286 353.476 576.656 353.486 577.031V583H351.783V571.578H354.072L359.658 580.633H359.713C359.702 580.367 359.689 580.062 359.673 579.719C359.658 579.375 359.642 579.021 359.627 578.656C359.616 578.286 359.608 577.93 359.603 577.586V571.578H361.314V583ZM368.923 576.797H373.189V582.531C372.59 582.729 371.97 582.883 371.33 582.992C370.689 583.102 369.97 583.156 369.173 583.156C368.012 583.156 367.028 582.927 366.22 582.469C365.418 582.005 364.809 581.336 364.392 580.461C363.976 579.581 363.767 578.521 363.767 577.281C363.767 576.089 363.999 575.055 364.463 574.18C364.926 573.299 365.601 572.62 366.486 572.141C367.371 571.656 368.444 571.414 369.705 571.414C370.325 571.414 370.923 571.477 371.502 571.602C372.085 571.721 372.619 571.888 373.103 572.102L372.447 573.648C372.061 573.466 371.629 573.312 371.15 573.188C370.671 573.062 370.173 573 369.658 573C368.84 573 368.134 573.177 367.541 573.531C366.952 573.885 366.499 574.385 366.181 575.031C365.864 575.672 365.705 576.43 365.705 577.305C365.705 578.154 365.832 578.898 366.088 579.539C366.343 580.18 366.741 580.68 367.283 581.039C367.83 581.393 368.535 581.57 369.4 581.57C369.832 581.57 370.2 581.547 370.502 581.5C370.804 581.453 371.082 581.401 371.338 581.344V578.398H368.923V576.797ZM388.548 571.578L384.556 583H382.572L378.58 571.578H380.502L382.908 578.734C382.981 578.943 383.059 579.195 383.142 579.492C383.231 579.789 383.311 580.089 383.384 580.391C383.463 580.693 383.522 580.961 383.564 581.195C383.606 580.961 383.663 580.693 383.736 580.391C383.814 580.089 383.895 579.789 383.978 579.492C384.061 579.195 384.14 578.94 384.213 578.727L386.627 571.578H388.548ZM390.048 583V571.578H391.923V583H390.048ZM401.533 579.891C401.533 580.568 401.366 581.151 401.033 581.641C400.705 582.13 400.231 582.505 399.611 582.766C398.996 583.026 398.262 583.156 397.408 583.156C396.991 583.156 396.593 583.133 396.213 583.086C395.832 583.039 395.473 582.971 395.134 582.883C394.801 582.789 394.496 582.677 394.22 582.547V580.781C394.684 580.984 395.202 581.169 395.775 581.336C396.348 581.497 396.931 581.578 397.525 581.578C398.009 581.578 398.41 581.516 398.728 581.391C399.051 581.26 399.291 581.078 399.447 580.844C399.603 580.604 399.681 580.326 399.681 580.008C399.681 579.669 399.59 579.383 399.408 579.148C399.226 578.914 398.95 578.701 398.58 578.508C398.215 578.31 397.757 578.099 397.205 577.875C396.83 577.724 396.47 577.552 396.127 577.359C395.788 577.167 395.486 576.94 395.22 576.68C394.955 576.419 394.744 576.112 394.588 575.758C394.436 575.398 394.361 574.977 394.361 574.492C394.361 573.846 394.515 573.294 394.822 572.836C395.134 572.378 395.572 572.026 396.134 571.781C396.702 571.536 397.364 571.414 398.119 571.414C398.718 571.414 399.28 571.477 399.806 571.602C400.338 571.727 400.858 571.904 401.369 572.133L400.775 573.641C400.306 573.448 399.851 573.294 399.408 573.18C398.97 573.065 398.522 573.008 398.064 573.008C397.668 573.008 397.332 573.068 397.056 573.188C396.78 573.307 396.569 573.477 396.423 573.695C396.283 573.909 396.213 574.164 396.213 574.461C396.213 574.794 396.293 575.076 396.455 575.305C396.621 575.529 396.877 575.734 397.22 575.922C397.569 576.109 398.017 576.318 398.564 576.547C399.194 576.807 399.728 577.081 400.166 577.367C400.608 577.654 400.947 577.997 401.181 578.398C401.416 578.794 401.533 579.292 401.533 579.891ZM412.705 571.578V578.969C412.705 579.766 412.535 580.479 412.197 581.109C411.864 581.74 411.358 582.24 410.681 582.609C410.004 582.974 409.153 583.156 408.127 583.156C406.663 583.156 405.548 582.773 404.783 582.008C404.022 581.237 403.642 580.214 403.642 578.938V571.578H405.517V578.773C405.517 579.727 405.741 580.43 406.189 580.883C406.637 581.336 407.306 581.562 408.197 581.562C408.811 581.562 409.311 581.456 409.697 581.242C410.088 581.023 410.374 580.706 410.556 580.289C410.744 579.867 410.838 579.359 410.838 578.766V571.578H412.705ZM422.705 583L421.588 579.828H417.22L416.103 583H414.127L418.377 571.531H420.455L424.697 583H422.705ZM421.103 578.219L420.017 575.094C419.976 574.958 419.916 574.768 419.838 574.523C419.759 574.273 419.681 574.021 419.603 573.766C419.525 573.505 419.46 573.286 419.408 573.109C419.356 573.323 419.291 573.562 419.213 573.828C419.14 574.089 419.067 574.333 418.994 574.562C418.926 574.792 418.874 574.969 418.838 575.094L417.744 578.219H421.103ZM426.205 583V571.578H428.08V581.406H432.931V583H426.205ZM339.127 609.18C339.127 610.466 338.887 611.542 338.408 612.406C337.929 613.266 337.233 613.914 336.322 614.352C335.41 614.784 334.311 615 333.025 615H329.853V603.578H333.369C334.551 603.578 335.572 603.792 336.431 604.219C337.291 604.641 337.955 605.268 338.423 606.102C338.892 606.93 339.127 607.956 339.127 609.18ZM337.173 609.234C337.173 608.297 337.025 607.526 336.728 606.922C336.436 606.318 336.004 605.87 335.431 605.578C334.864 605.281 334.163 605.133 333.33 605.133H331.728V613.43H333.056C334.436 613.43 335.468 613.078 336.15 612.375C336.832 611.672 337.173 610.625 337.173 609.234ZM348.056 615H341.588V603.578H348.056V605.156H343.463V608.258H347.767V609.828H343.463V613.414H348.056V615ZM357.119 611.891C357.119 612.568 356.952 613.151 356.619 613.641C356.291 614.13 355.817 614.505 355.197 614.766C354.582 615.026 353.848 615.156 352.994 615.156C352.577 615.156 352.179 615.133 351.798 615.086C351.418 615.039 351.059 614.971 350.72 614.883C350.387 614.789 350.082 614.677 349.806 614.547V612.781C350.27 612.984 350.788 613.169 351.361 613.336C351.934 613.497 352.517 613.578 353.111 613.578C353.595 613.578 353.996 613.516 354.314 613.391C354.637 613.26 354.877 613.078 355.033 612.844C355.189 612.604 355.267 612.326 355.267 612.008C355.267 611.669 355.176 611.383 354.994 611.148C354.811 610.914 354.535 610.701 354.166 610.508C353.801 610.31 353.343 610.099 352.791 609.875C352.416 609.724 352.056 609.552 351.713 609.359C351.374 609.167 351.072 608.94 350.806 608.68C350.541 608.419 350.33 608.112 350.173 607.758C350.022 607.398 349.947 606.977 349.947 606.492C349.947 605.846 350.101 605.294 350.408 604.836C350.72 604.378 351.158 604.026 351.72 603.781C352.288 603.536 352.95 603.414 353.705 603.414C354.304 603.414 354.866 603.477 355.392 603.602C355.923 603.727 356.444 603.904 356.955 604.133L356.361 605.641C355.892 605.448 355.436 605.294 354.994 605.18C354.556 605.065 354.108 605.008 353.65 605.008C353.254 605.008 352.918 605.068 352.642 605.188C352.366 605.307 352.155 605.477 352.009 605.695C351.869 605.909 351.798 606.164 351.798 606.461C351.798 606.794 351.879 607.076 352.041 607.305C352.207 607.529 352.463 607.734 352.806 607.922C353.155 608.109 353.603 608.318 354.15 608.547C354.78 608.807 355.314 609.081 355.752 609.367C356.194 609.654 356.533 609.997 356.767 610.398C357.002 610.794 357.119 611.292 357.119 611.891ZM359.322 615V603.578H361.197V615H359.322ZM368.822 608.797H373.088V614.531C372.489 614.729 371.869 614.883 371.228 614.992C370.588 615.102 369.869 615.156 369.072 615.156C367.91 615.156 366.926 614.927 366.119 614.469C365.317 614.005 364.707 613.336 364.291 612.461C363.874 611.581 363.666 610.521 363.666 609.281C363.666 608.089 363.897 607.055 364.361 606.18C364.825 605.299 365.499 604.62 366.384 604.141C367.27 603.656 368.343 603.414 369.603 603.414C370.223 603.414 370.822 603.477 371.4 603.602C371.983 603.721 372.517 603.888 373.002 604.102L372.345 605.648C371.96 605.466 371.528 605.312 371.048 605.188C370.569 605.062 370.072 605 369.556 605C368.739 605 368.033 605.177 367.439 605.531C366.851 605.885 366.397 606.385 366.08 607.031C365.762 607.672 365.603 608.43 365.603 609.305C365.603 610.154 365.731 610.898 365.986 611.539C366.241 612.18 366.64 612.68 367.181 613.039C367.728 613.393 368.434 613.57 369.298 613.57C369.731 613.57 370.098 613.547 370.4 613.5C370.702 613.453 370.981 613.401 371.236 613.344V610.398H368.822V608.797ZM385.353 615H383.048L377.455 605.883H377.384C377.405 606.19 377.423 606.516 377.439 606.859C377.46 607.203 377.476 607.557 377.486 607.922C377.502 608.286 377.515 608.656 377.525 609.031V615H375.822V603.578H378.111L383.697 612.633H383.752C383.741 612.367 383.728 612.062 383.713 611.719C383.697 611.375 383.681 611.021 383.666 610.656C383.655 610.286 383.647 609.93 383.642 609.586V603.578H385.353V615ZM394.947 611.891C394.947 612.568 394.78 613.151 394.447 613.641C394.119 614.13 393.645 614.505 393.025 614.766C392.41 615.026 391.676 615.156 390.822 615.156C390.405 615.156 390.007 615.133 389.627 615.086C389.246 615.039 388.887 614.971 388.548 614.883C388.215 614.789 387.91 614.677 387.634 614.547V612.781C388.098 612.984 388.616 613.169 389.189 613.336C389.762 613.497 390.345 613.578 390.939 613.578C391.423 613.578 391.825 613.516 392.142 613.391C392.465 613.26 392.705 613.078 392.861 612.844C393.017 612.604 393.095 612.326 393.095 612.008C393.095 611.669 393.004 611.383 392.822 611.148C392.64 610.914 392.364 610.701 391.994 610.508C391.629 610.31 391.171 610.099 390.619 609.875C390.244 609.724 389.884 609.552 389.541 609.359C389.202 609.167 388.9 608.94 388.634 608.68C388.369 608.419 388.158 608.112 388.002 607.758C387.851 607.398 387.775 606.977 387.775 606.492C387.775 605.846 387.929 605.294 388.236 604.836C388.548 604.378 388.986 604.026 389.548 603.781C390.116 603.536 390.778 603.414 391.533 603.414C392.132 603.414 392.694 603.477 393.22 603.602C393.752 603.727 394.272 603.904 394.783 604.133L394.189 605.641C393.72 605.448 393.265 605.294 392.822 605.18C392.384 605.065 391.936 605.008 391.478 605.008C391.082 605.008 390.746 605.068 390.47 605.188C390.194 605.307 389.983 605.477 389.838 605.695C389.697 605.909 389.627 606.164 389.627 606.461C389.627 606.794 389.707 607.076 389.869 607.305C390.035 607.529 390.291 607.734 390.634 607.922C390.983 608.109 391.431 608.318 391.978 608.547C392.608 608.807 393.142 609.081 393.58 609.367C394.022 609.654 394.361 609.997 394.595 610.398C394.83 610.794 394.947 611.292 394.947 611.891Z" fill="black"/>
<path d="M253.773 151H246.039V149.617L249 146.617C249.573 146.034 250.044 145.531 250.414 145.109C250.784 144.682 251.057 144.279 251.234 143.898C251.417 143.518 251.508 143.104 251.508 142.656C251.508 142.104 251.349 141.688 251.031 141.406C250.714 141.12 250.294 140.977 249.773 140.977C249.279 140.977 248.82 141.076 248.398 141.273C247.982 141.466 247.549 141.742 247.102 142.102L246.094 140.891C246.411 140.62 246.75 140.372 247.109 140.148C247.474 139.924 247.88 139.747 248.328 139.617C248.776 139.482 249.286 139.414 249.859 139.414C250.583 139.414 251.208 139.544 251.734 139.805C252.26 140.06 252.664 140.417 252.945 140.875C253.232 141.333 253.375 141.867 253.375 142.477C253.375 143.091 253.253 143.659 253.008 144.18C252.763 144.701 252.414 145.216 251.961 145.727C251.508 146.232 250.969 146.781 250.344 147.375L248.367 149.305V149.391H253.773V151ZM265.25 145.18C265.25 146.466 265.01 147.542 264.531 148.406C264.052 149.266 263.357 149.914 262.445 150.352C261.534 150.784 260.435 151 259.148 151H255.977V139.578H259.492C260.674 139.578 261.695 139.792 262.555 140.219C263.414 140.641 264.078 141.268 264.547 142.102C265.016 142.93 265.25 143.956 265.25 145.18ZM263.297 145.234C263.297 144.297 263.148 143.526 262.852 142.922C262.56 142.318 262.128 141.87 261.555 141.578C260.987 141.281 260.286 141.133 259.453 141.133H257.852V149.43H259.18C260.56 149.43 261.591 149.078 262.273 148.375C262.956 147.672 263.297 146.625 263.297 145.234ZM278.945 151L277.828 147.828H273.461L272.344 151H270.367L274.617 139.531H276.695L280.938 151H278.945ZM277.344 146.219L276.258 143.094C276.216 142.958 276.156 142.768 276.078 142.523C276 142.273 275.922 142.021 275.844 141.766C275.766 141.505 275.701 141.286 275.648 141.109C275.596 141.323 275.531 141.562 275.453 141.828C275.38 142.089 275.307 142.333 275.234 142.562C275.167 142.792 275.115 142.969 275.078 143.094L273.984 146.219H277.344ZM291.977 151H289.672L284.078 141.883H284.008C284.029 142.19 284.047 142.516 284.062 142.859C284.083 143.203 284.099 143.557 284.109 143.922C284.125 144.286 284.138 144.656 284.148 145.031V151H282.445V139.578H284.734L290.32 148.633H290.375C290.365 148.367 290.352 148.062 290.336 147.719C290.32 147.375 290.305 147.021 290.289 146.656C290.279 146.286 290.271 145.93 290.266 145.586V139.578H291.977V151ZM294.977 151V139.578H296.852V151H294.977ZM304.797 151L301.508 141.461H301.438C301.453 141.674 301.471 141.966 301.492 142.336C301.513 142.706 301.531 143.102 301.547 143.523C301.562 143.945 301.57 144.349 301.57 144.734V151H299.867V139.578H302.5L305.664 148.695H305.711L308.984 139.578H311.609V151H309.82V144.641C309.82 144.292 309.826 143.914 309.836 143.508C309.852 143.102 309.867 142.716 309.883 142.352C309.904 141.987 309.919 141.695 309.93 141.477H309.867L306.453 151H304.797ZM321.695 151L320.578 147.828H316.211L315.094 151H313.117L317.367 139.531H319.445L323.688 151H321.695ZM320.094 146.219L319.008 143.094C318.966 142.958 318.906 142.768 318.828 142.523C318.75 142.273 318.672 142.021 318.594 141.766C318.516 141.505 318.451 141.286 318.398 141.109C318.346 141.323 318.281 141.562 318.203 141.828C318.13 142.089 318.057 142.333 317.984 142.562C317.917 142.792 317.865 142.969 317.828 143.094L316.734 146.219H320.094ZM329.156 151H327.273V141.172H323.93V139.578H332.492V141.172H329.156V151ZM340.711 151H334.242V139.578H340.711V141.156H336.117V144.258H340.422V145.828H336.117V149.414H340.711V151ZM352.453 145.18C352.453 146.466 352.214 147.542 351.734 148.406C351.255 149.266 350.56 149.914 349.648 150.352C348.737 150.784 347.638 151 346.352 151H343.18V139.578H346.695C347.878 139.578 348.898 139.792 349.758 140.219C350.617 140.641 351.281 141.268 351.75 142.102C352.219 142.93 352.453 143.956 352.453 145.18ZM350.5 145.234C350.5 144.297 350.352 143.526 350.055 142.922C349.763 142.318 349.331 141.87 348.758 141.578C348.19 141.281 347.49 141.133 346.656 141.133H345.055V149.43H346.383C347.763 149.43 348.794 149.078 349.477 148.375C350.159 147.672 350.5 146.625 350.5 145.234ZM367.539 139.578L363.547 151H361.562L357.57 139.578H359.492L361.898 146.734C361.971 146.943 362.049 147.195 362.133 147.492C362.221 147.789 362.302 148.089 362.375 148.391C362.453 148.693 362.513 148.961 362.555 149.195C362.596 148.961 362.654 148.693 362.727 148.391C362.805 148.089 362.885 147.789 362.969 147.492C363.052 147.195 363.13 146.94 363.203 146.727L365.617 139.578H367.539ZM369.039 151V139.578H370.914V151H369.039ZM383.203 145.18C383.203 146.466 382.964 147.542 382.484 148.406C382.005 149.266 381.31 149.914 380.398 150.352C379.487 150.784 378.388 151 377.102 151H373.93V139.578H377.445C378.628 139.578 379.648 139.792 380.508 140.219C381.367 140.641 382.031 141.268 382.5 142.102C382.969 142.93 383.203 143.956 383.203 145.18ZM381.25 145.234C381.25 144.297 381.102 143.526 380.805 142.922C380.513 142.318 380.081 141.87 379.508 141.578C378.94 141.281 378.24 141.133 377.406 141.133H375.805V149.43H377.133C378.513 149.43 379.544 149.078 380.227 148.375C380.909 147.672 381.25 146.625 381.25 145.234ZM392.133 151H385.664V139.578H392.133V141.156H387.539V144.258H391.844V145.828H387.539V149.414H392.133V151ZM404.742 145.273C404.742 146.154 404.63 146.956 404.406 147.68C404.188 148.398 403.857 149.018 403.414 149.539C402.971 150.055 402.417 150.453 401.75 150.734C401.083 151.016 400.302 151.156 399.406 151.156C398.495 151.156 397.703 151.016 397.031 150.734C396.365 150.453 395.81 150.052 395.367 149.531C394.93 149.01 394.602 148.388 394.383 147.664C394.164 146.94 394.055 146.138 394.055 145.258C394.055 144.081 394.247 143.055 394.633 142.18C395.023 141.299 395.615 140.617 396.406 140.133C397.203 139.643 398.208 139.398 399.422 139.398C400.609 139.398 401.596 139.641 402.383 140.125C403.169 140.609 403.758 141.292 404.148 142.172C404.544 143.047 404.742 144.081 404.742 145.273ZM396.023 145.273C396.023 146.154 396.143 146.917 396.383 147.562C396.622 148.203 396.99 148.698 397.484 149.047C397.984 149.391 398.625 149.562 399.406 149.562C400.193 149.562 400.833 149.391 401.328 149.047C401.823 148.698 402.188 148.203 402.422 147.562C402.656 146.917 402.773 146.154 402.773 145.273C402.773 143.935 402.505 142.888 401.969 142.133C401.438 141.372 400.589 140.992 399.422 140.992C398.641 140.992 397.997 141.164 397.492 141.508C396.992 141.852 396.622 142.344 396.383 142.984C396.143 143.62 396.023 144.383 396.023 145.273ZM416.219 141.008C415.672 141.008 415.182 141.107 414.75 141.305C414.323 141.503 413.961 141.789 413.664 142.164C413.367 142.534 413.141 142.984 412.984 143.516C412.828 144.042 412.75 144.635 412.75 145.297C412.75 146.182 412.875 146.945 413.125 147.586C413.375 148.221 413.755 148.711 414.266 149.055C414.776 149.393 415.422 149.562 416.203 149.562C416.688 149.562 417.159 149.516 417.617 149.422C418.076 149.328 418.549 149.201 419.039 149.039V150.633C418.576 150.815 418.107 150.948 417.633 151.031C417.159 151.115 416.612 151.156 415.992 151.156C414.826 151.156 413.857 150.914 413.086 150.43C412.32 149.945 411.747 149.263 411.367 148.383C410.992 147.503 410.805 146.471 410.805 145.289C410.805 144.424 410.924 143.633 411.164 142.914C411.404 142.195 411.753 141.576 412.211 141.055C412.669 140.529 413.234 140.125 413.906 139.844C414.583 139.557 415.357 139.414 416.227 139.414C416.799 139.414 417.362 139.479 417.914 139.609C418.471 139.734 418.987 139.914 419.461 140.148L418.805 141.695C418.409 141.508 417.995 141.346 417.562 141.211C417.13 141.076 416.682 141.008 416.219 141.008ZM431.633 145.273C431.633 146.154 431.521 146.956 431.297 147.68C431.078 148.398 430.747 149.018 430.305 149.539C429.862 150.055 429.307 150.453 428.641 150.734C427.974 151.016 427.193 151.156 426.297 151.156C425.385 151.156 424.594 151.016 423.922 150.734C423.255 150.453 422.701 150.052 422.258 149.531C421.82 149.01 421.492 148.388 421.273 147.664C421.055 146.94 420.945 146.138 420.945 145.258C420.945 144.081 421.138 143.055 421.523 142.18C421.914 141.299 422.505 140.617 423.297 140.133C424.094 139.643 425.099 139.398 426.312 139.398C427.5 139.398 428.487 139.641 429.273 140.125C430.06 140.609 430.648 141.292 431.039 142.172C431.435 143.047 431.633 144.081 431.633 145.273ZM422.914 145.273C422.914 146.154 423.034 146.917 423.273 147.562C423.513 148.203 423.88 148.698 424.375 149.047C424.875 149.391 425.516 149.562 426.297 149.562C427.083 149.562 427.724 149.391 428.219 149.047C428.714 148.698 429.078 148.203 429.312 147.562C429.547 146.917 429.664 146.154 429.664 145.273C429.664 143.935 429.396 142.888 428.859 142.133C428.328 141.372 427.479 140.992 426.312 140.992C425.531 140.992 424.888 141.164 424.383 141.508C423.883 141.852 423.513 142.344 423.273 142.984C423.034 143.62 422.914 144.383 422.914 145.273ZM443.617 151H441.312L435.719 141.883H435.648C435.669 142.19 435.688 142.516 435.703 142.859C435.724 143.203 435.74 143.557 435.75 143.922C435.766 144.286 435.779 144.656 435.789 145.031V151H434.086V139.578H436.375L441.961 148.633H442.016C442.005 148.367 441.992 148.062 441.977 147.719C441.961 147.375 441.945 147.021 441.93 146.656C441.919 146.286 441.911 145.93 441.906 145.586V139.578H443.617V151ZM450.578 151H448.695V141.172H445.352V139.578H453.914V141.172H450.578V151ZM462.133 151H455.664V139.578H462.133V141.156H457.539V144.258H461.844V145.828H457.539V149.414H462.133V151ZM474.133 151H471.828L466.234 141.883H466.164C466.185 142.19 466.203 142.516 466.219 142.859C466.24 143.203 466.255 143.557 466.266 143.922C466.281 144.286 466.294 144.656 466.305 145.031V151H464.602V139.578H466.891L472.477 148.633H472.531C472.521 148.367 472.508 148.062 472.492 147.719C472.477 147.375 472.461 147.021 472.445 146.656C472.435 146.286 472.427 145.93 472.422 145.586V139.578H474.133V151ZM481.094 151H479.211V141.172H475.867V139.578H484.43V141.172H481.094V151Z" fill="black"/>
<path d="M88.7578 452.578H92.1562C93.6302 452.578 94.7422 452.792 95.4922 453.219C96.2422 453.646 96.6172 454.383 96.6172 455.43C96.6172 455.867 96.5391 456.263 96.3828 456.617C96.2318 456.966 96.0104 457.255 95.7188 457.484C95.4271 457.708 95.0677 457.859 94.6406 457.938V458.016C95.0833 458.094 95.4766 458.232 95.8203 458.43C96.1693 458.628 96.4427 458.911 96.6406 459.281C96.8438 459.651 96.9453 460.13 96.9453 460.719C96.9453 461.417 96.7786 462.01 96.4453 462.5C96.1172 462.99 95.6458 463.362 95.0312 463.617C94.4219 463.872 93.6979 464 92.8594 464H88.7578V452.578ZM90.6328 457.289H92.4297C93.2786 457.289 93.8672 457.151 94.1953 456.875C94.5234 456.599 94.6875 456.195 94.6875 455.664C94.6875 455.122 94.4922 454.732 94.1016 454.492C93.7161 454.253 93.1016 454.133 92.2578 454.133H90.6328V457.289ZM90.6328 458.805V462.43H92.6094C93.4844 462.43 94.099 462.26 94.4531 461.922C94.8073 461.583 94.9844 461.125 94.9844 460.547C94.9844 460.193 94.9036 459.885 94.7422 459.625C94.5859 459.365 94.3281 459.164 93.9688 459.023C93.6094 458.878 93.125 458.805 92.5156 458.805H90.6328ZM102.516 452.578C103.5 452.578 104.312 452.698 104.953 452.938C105.599 453.177 106.078 453.542 106.391 454.031C106.708 454.521 106.867 455.143 106.867 455.898C106.867 456.461 106.763 456.94 106.555 457.336C106.346 457.732 106.073 458.06 105.734 458.32C105.396 458.581 105.034 458.789 104.648 458.945L107.891 464H105.773L103.016 459.422H101.18V464H99.3047V452.578H102.516ZM102.391 454.141H101.18V457.875H102.477C103.346 457.875 103.977 457.714 104.367 457.391C104.763 457.068 104.961 456.591 104.961 455.961C104.961 455.299 104.75 454.831 104.328 454.555C103.911 454.279 103.266 454.141 102.391 454.141ZM116.602 464L115.484 460.828H111.117L110 464H108.023L112.273 452.531H114.352L118.594 464H116.602ZM115 459.219L113.914 456.094C113.872 455.958 113.812 455.768 113.734 455.523C113.656 455.273 113.578 455.021 113.5 454.766C113.422 454.505 113.357 454.286 113.305 454.109C113.253 454.323 113.188 454.562 113.109 454.828C113.036 455.089 112.964 455.333 112.891 455.562C112.823 455.792 112.771 455.969 112.734 456.094L111.641 459.219H115ZM129.633 464H127.328L121.734 454.883H121.664C121.685 455.19 121.703 455.516 121.719 455.859C121.74 456.203 121.755 456.557 121.766 456.922C121.781 457.286 121.794 457.656 121.805 458.031V464H120.102V452.578H122.391L127.977 461.633H128.031C128.021 461.367 128.008 461.062 127.992 460.719C127.977 460.375 127.961 460.021 127.945 459.656C127.935 459.286 127.927 458.93 127.922 458.586V452.578H129.633V464ZM141.906 458.18C141.906 459.466 141.667 460.542 141.188 461.406C140.708 462.266 140.013 462.914 139.102 463.352C138.19 463.784 137.091 464 135.805 464H132.633V452.578H136.148C137.331 452.578 138.352 452.792 139.211 453.219C140.07 453.641 140.734 454.268 141.203 455.102C141.672 455.93 141.906 456.956 141.906 458.18ZM139.953 458.234C139.953 457.297 139.805 456.526 139.508 455.922C139.216 455.318 138.784 454.87 138.211 454.578C137.643 454.281 136.943 454.133 136.109 454.133H134.508V462.43H135.836C137.216 462.43 138.247 462.078 138.93 461.375C139.612 460.672 139.953 459.625 139.953 458.234ZM144.367 464V452.578H146.242V464H144.367ZM158.789 464H156.484L150.891 454.883H150.82C150.841 455.19 150.859 455.516 150.875 455.859C150.896 456.203 150.911 456.557 150.922 456.922C150.938 457.286 150.951 457.656 150.961 458.031V464H149.258V452.578H151.547L157.133 461.633H157.188C157.177 461.367 157.164 461.062 157.148 460.719C157.133 460.375 157.117 460.021 157.102 459.656C157.091 459.286 157.083 458.93 157.078 458.586V452.578H158.789V464ZM166.398 457.797H170.664V463.531C170.065 463.729 169.445 463.883 168.805 463.992C168.164 464.102 167.445 464.156 166.648 464.156C165.487 464.156 164.503 463.927 163.695 463.469C162.893 463.005 162.284 462.336 161.867 461.461C161.451 460.581 161.242 459.521 161.242 458.281C161.242 457.089 161.474 456.055 161.938 455.18C162.401 454.299 163.076 453.62 163.961 453.141C164.846 452.656 165.919 452.414 167.18 452.414C167.799 452.414 168.398 452.477 168.977 452.602C169.56 452.721 170.094 452.888 170.578 453.102L169.922 454.648C169.536 454.466 169.104 454.312 168.625 454.188C168.146 454.062 167.648 454 167.133 454C166.315 454 165.609 454.177 165.016 454.531C164.427 454.885 163.974 455.385 163.656 456.031C163.339 456.672 163.18 457.43 163.18 458.305C163.18 459.154 163.307 459.898 163.562 460.539C163.818 461.18 164.216 461.68 164.758 462.039C165.305 462.393 166.01 462.57 166.875 462.57C167.307 462.57 167.674 462.547 167.977 462.5C168.279 462.453 168.557 462.401 168.812 462.344V459.398H166.398V457.797ZM180.969 452.406C181.557 452.406 182.073 452.503 182.516 452.695C182.964 452.888 183.312 453.169 183.562 453.539C183.812 453.904 183.938 454.349 183.938 454.875C183.938 455.578 183.719 456.172 183.281 456.656C182.844 457.141 182.292 457.573 181.625 457.953L184.32 460.578C184.576 460.229 184.786 459.846 184.953 459.43C185.12 459.008 185.263 458.565 185.383 458.102H187.281C187.12 458.747 186.896 459.385 186.609 460.016C186.323 460.641 185.961 461.214 185.523 461.734L187.844 464H185.492L184.336 462.867C184.013 463.128 183.667 463.354 183.297 463.547C182.932 463.74 182.534 463.891 182.102 464C181.669 464.104 181.193 464.156 180.672 464.156C179.875 464.156 179.188 464.029 178.609 463.773C178.031 463.518 177.586 463.154 177.273 462.68C176.966 462.201 176.812 461.633 176.812 460.977C176.812 460.43 176.904 459.961 177.086 459.57C177.273 459.174 177.539 458.828 177.883 458.531C178.227 458.229 178.638 457.943 179.117 457.672C178.857 457.375 178.63 457.086 178.438 456.805C178.245 456.523 178.096 456.234 177.992 455.938C177.893 455.635 177.844 455.312 177.844 454.969C177.844 454.438 177.974 453.982 178.234 453.602C178.495 453.216 178.859 452.922 179.328 452.719C179.797 452.51 180.344 452.406 180.969 452.406ZM180.203 458.789C179.901 458.982 179.641 459.177 179.422 459.375C179.203 459.568 179.034 459.781 178.914 460.016C178.799 460.25 178.742 460.523 178.742 460.836C178.742 461.372 178.93 461.797 179.305 462.109C179.685 462.422 180.174 462.578 180.773 462.578C181.299 462.578 181.76 462.5 182.156 462.344C182.557 462.182 182.906 461.982 183.203 461.742L180.203 458.789ZM180.938 453.859C180.568 453.859 180.247 453.956 179.977 454.148C179.711 454.341 179.578 454.641 179.578 455.047C179.578 455.375 179.664 455.685 179.836 455.977C180.013 456.263 180.258 456.573 180.57 456.906C181.117 456.604 181.523 456.307 181.789 456.016C182.06 455.724 182.195 455.385 182.195 455C182.195 454.635 182.073 454.354 181.828 454.156C181.583 453.958 181.286 453.859 180.938 453.859ZM200.133 460.891C200.133 461.568 199.966 462.151 199.633 462.641C199.305 463.13 198.831 463.505 198.211 463.766C197.596 464.026 196.862 464.156 196.008 464.156C195.591 464.156 195.193 464.133 194.812 464.086C194.432 464.039 194.073 463.971 193.734 463.883C193.401 463.789 193.096 463.677 192.82 463.547V461.781C193.284 461.984 193.802 462.169 194.375 462.336C194.948 462.497 195.531 462.578 196.125 462.578C196.609 462.578 197.01 462.516 197.328 462.391C197.651 462.26 197.891 462.078 198.047 461.844C198.203 461.604 198.281 461.326 198.281 461.008C198.281 460.669 198.19 460.383 198.008 460.148C197.826 459.914 197.549 459.701 197.18 459.508C196.815 459.31 196.357 459.099 195.805 458.875C195.43 458.724 195.07 458.552 194.727 458.359C194.388 458.167 194.086 457.94 193.82 457.68C193.555 457.419 193.344 457.112 193.188 456.758C193.036 456.398 192.961 455.977 192.961 455.492C192.961 454.846 193.115 454.294 193.422 453.836C193.734 453.378 194.172 453.026 194.734 452.781C195.302 452.536 195.964 452.414 196.719 452.414C197.318 452.414 197.88 452.477 198.406 452.602C198.938 452.727 199.458 452.904 199.969 453.133L199.375 454.641C198.906 454.448 198.451 454.294 198.008 454.18C197.57 454.065 197.122 454.008 196.664 454.008C196.268 454.008 195.932 454.068 195.656 454.188C195.38 454.307 195.169 454.477 195.023 454.695C194.883 454.909 194.812 455.164 194.812 455.461C194.812 455.794 194.893 456.076 195.055 456.305C195.221 456.529 195.477 456.734 195.82 456.922C196.169 457.109 196.617 457.318 197.164 457.547C197.794 457.807 198.328 458.081 198.766 458.367C199.208 458.654 199.547 458.997 199.781 459.398C200.016 459.794 200.133 460.292 200.133 460.891ZM212.477 458.273C212.477 459.154 212.365 459.956 212.141 460.68C211.922 461.398 211.591 462.018 211.148 462.539C210.706 463.055 210.151 463.453 209.484 463.734C208.818 464.016 208.036 464.156 207.141 464.156C206.229 464.156 205.438 464.016 204.766 463.734C204.099 463.453 203.544 463.052 203.102 462.531C202.664 462.01 202.336 461.388 202.117 460.664C201.898 459.94 201.789 459.138 201.789 458.258C201.789 457.081 201.982 456.055 202.367 455.18C202.758 454.299 203.349 453.617 204.141 453.133C204.938 452.643 205.943 452.398 207.156 452.398C208.344 452.398 209.331 452.641 210.117 453.125C210.904 453.609 211.492 454.292 211.883 455.172C212.279 456.047 212.477 457.081 212.477 458.273ZM203.758 458.273C203.758 459.154 203.878 459.917 204.117 460.562C204.357 461.203 204.724 461.698 205.219 462.047C205.719 462.391 206.359 462.562 207.141 462.562C207.927 462.562 208.568 462.391 209.062 462.047C209.557 461.698 209.922 461.203 210.156 460.562C210.391 459.917 210.508 459.154 210.508 458.273C210.508 456.935 210.24 455.888 209.703 455.133C209.172 454.372 208.323 453.992 207.156 453.992C206.375 453.992 205.732 454.164 205.227 454.508C204.727 454.852 204.357 455.344 204.117 455.984C203.878 456.62 203.758 457.383 203.758 458.273ZM219.797 454.008C219.25 454.008 218.76 454.107 218.328 454.305C217.901 454.503 217.539 454.789 217.242 455.164C216.945 455.534 216.719 455.984 216.562 456.516C216.406 457.042 216.328 457.635 216.328 458.297C216.328 459.182 216.453 459.945 216.703 460.586C216.953 461.221 217.333 461.711 217.844 462.055C218.354 462.393 219 462.562 219.781 462.562C220.266 462.562 220.737 462.516 221.195 462.422C221.654 462.328 222.128 462.201 222.617 462.039V463.633C222.154 463.815 221.685 463.948 221.211 464.031C220.737 464.115 220.19 464.156 219.57 464.156C218.404 464.156 217.435 463.914 216.664 463.43C215.898 462.945 215.326 462.263 214.945 461.383C214.57 460.503 214.383 459.471 214.383 458.289C214.383 457.424 214.503 456.633 214.742 455.914C214.982 455.195 215.331 454.576 215.789 454.055C216.247 453.529 216.812 453.125 217.484 452.844C218.161 452.557 218.935 452.414 219.805 452.414C220.378 452.414 220.94 452.479 221.492 452.609C222.049 452.734 222.565 452.914 223.039 453.148L222.383 454.695C221.987 454.508 221.573 454.346 221.141 454.211C220.708 454.076 220.26 454.008 219.797 454.008ZM225.07 464V452.578H226.945V464H225.07ZM237.039 464L235.922 460.828H231.555L230.438 464H228.461L232.711 452.531H234.789L239.031 464H237.039ZM235.438 459.219L234.352 456.094C234.31 455.958 234.25 455.768 234.172 455.523C234.094 455.273 234.016 455.021 233.938 454.766C233.859 454.505 233.794 454.286 233.742 454.109C233.69 454.323 233.625 454.562 233.547 454.828C233.474 455.089 233.401 455.333 233.328 455.562C233.26 455.792 233.208 455.969 233.172 456.094L232.078 459.219H235.438ZM240.539 464V452.578H242.414V462.406H247.266V464H240.539ZM108.992 496L105.703 486.461H105.633C105.648 486.674 105.667 486.966 105.688 487.336C105.708 487.706 105.727 488.102 105.742 488.523C105.758 488.945 105.766 489.349 105.766 489.734V496H104.062V484.578H106.695L109.859 493.695H109.906L113.18 484.578H115.805V496H114.016V489.641C114.016 489.292 114.021 488.914 114.031 488.508C114.047 488.102 114.062 487.716 114.078 487.352C114.099 486.987 114.115 486.695 114.125 486.477H114.062L110.648 496H108.992ZM125.281 496H118.812V484.578H125.281V486.156H120.688V489.258H124.992V490.828H120.688V494.414H125.281V496ZM137.023 490.18C137.023 491.466 136.784 492.542 136.305 493.406C135.826 494.266 135.13 494.914 134.219 495.352C133.307 495.784 132.208 496 130.922 496H127.75V484.578H131.266C132.448 484.578 133.469 484.792 134.328 485.219C135.188 485.641 135.852 486.268 136.32 487.102C136.789 487.93 137.023 488.956 137.023 490.18ZM135.07 490.234C135.07 489.297 134.922 488.526 134.625 487.922C134.333 487.318 133.901 486.87 133.328 486.578C132.76 486.281 132.06 486.133 131.227 486.133H129.625V494.43H130.953C132.333 494.43 133.365 494.078 134.047 493.375C134.729 492.672 135.07 491.625 135.07 490.234ZM139.484 496V484.578H141.359V496H139.484ZM151.453 496L150.336 492.828H145.969L144.852 496H142.875L147.125 484.531H149.203L153.445 496H151.453ZM149.852 491.219L148.766 488.094C148.724 487.958 148.664 487.768 148.586 487.523C148.508 487.273 148.43 487.021 148.352 486.766C148.273 486.505 148.208 486.286 148.156 486.109C148.104 486.323 148.039 486.562 147.961 486.828C147.888 487.089 147.815 487.333 147.742 487.562C147.674 487.792 147.622 487.969 147.586 488.094L146.492 491.219H149.852ZM163.977 486.008C163.43 486.008 162.94 486.107 162.508 486.305C162.081 486.503 161.719 486.789 161.422 487.164C161.125 487.534 160.898 487.984 160.742 488.516C160.586 489.042 160.508 489.635 160.508 490.297C160.508 491.182 160.633 491.945 160.883 492.586C161.133 493.221 161.513 493.711 162.023 494.055C162.534 494.393 163.18 494.562 163.961 494.562C164.445 494.562 164.917 494.516 165.375 494.422C165.833 494.328 166.307 494.201 166.797 494.039V495.633C166.333 495.815 165.865 495.948 165.391 496.031C164.917 496.115 164.37 496.156 163.75 496.156C162.583 496.156 161.615 495.914 160.844 495.43C160.078 494.945 159.505 494.263 159.125 493.383C158.75 492.503 158.562 491.471 158.562 490.289C158.562 489.424 158.682 488.633 158.922 487.914C159.161 487.195 159.51 486.576 159.969 486.055C160.427 485.529 160.992 485.125 161.664 484.844C162.341 484.557 163.115 484.414 163.984 484.414C164.557 484.414 165.12 484.479 165.672 484.609C166.229 484.734 166.745 484.914 167.219 485.148L166.562 486.695C166.167 486.508 165.753 486.346 165.32 486.211C164.888 486.076 164.44 486.008 163.977 486.008ZM179.391 490.273C179.391 491.154 179.279 491.956 179.055 492.68C178.836 493.398 178.505 494.018 178.062 494.539C177.62 495.055 177.065 495.453 176.398 495.734C175.732 496.016 174.951 496.156 174.055 496.156C173.143 496.156 172.352 496.016 171.68 495.734C171.013 495.453 170.458 495.052 170.016 494.531C169.578 494.01 169.25 493.388 169.031 492.664C168.812 491.94 168.703 491.138 168.703 490.258C168.703 489.081 168.896 488.055 169.281 487.18C169.672 486.299 170.263 485.617 171.055 485.133C171.852 484.643 172.857 484.398 174.07 484.398C175.258 484.398 176.245 484.641 177.031 485.125C177.818 485.609 178.406 486.292 178.797 487.172C179.193 488.047 179.391 489.081 179.391 490.273ZM170.672 490.273C170.672 491.154 170.792 491.917 171.031 492.562C171.271 493.203 171.638 493.698 172.133 494.047C172.633 494.391 173.273 494.562 174.055 494.562C174.841 494.562 175.482 494.391 175.977 494.047C176.471 493.698 176.836 493.203 177.07 492.562C177.305 491.917 177.422 491.154 177.422 490.273C177.422 488.935 177.154 487.888 176.617 487.133C176.086 486.372 175.237 485.992 174.07 485.992C173.289 485.992 172.646 486.164 172.141 486.508C171.641 486.852 171.271 487.344 171.031 487.984C170.792 488.62 170.672 489.383 170.672 490.273ZM191.375 496H189.07L183.477 486.883H183.406C183.427 487.19 183.445 487.516 183.461 487.859C183.482 488.203 183.497 488.557 183.508 488.922C183.523 489.286 183.536 489.656 183.547 490.031V496H181.844V484.578H184.133L189.719 493.633H189.773C189.763 493.367 189.75 493.062 189.734 492.719C189.719 492.375 189.703 492.021 189.688 491.656C189.677 491.286 189.669 490.93 189.664 490.586V484.578H191.375V496ZM198.336 496H196.453V486.172H193.109V484.578H201.672V486.172H198.336V496ZM209.891 496H203.422V484.578H209.891V486.156H205.297V489.258H209.602V490.828H205.297V494.414H209.891V496ZM221.891 496H219.586L213.992 486.883H213.922C213.943 487.19 213.961 487.516 213.977 487.859C213.997 488.203 214.013 488.557 214.023 488.922C214.039 489.286 214.052 489.656 214.062 490.031V496H212.359V484.578H214.648L220.234 493.633H220.289C220.279 493.367 220.266 493.062 220.25 492.719C220.234 492.375 220.219 492.021 220.203 491.656C220.193 491.286 220.185 490.93 220.18 490.586V484.578H221.891V496ZM228.852 496H226.969V486.172H223.625V484.578H232.188V486.172H228.852V496ZM134.398 518.008C133.852 518.008 133.362 518.107 132.93 518.305C132.503 518.503 132.141 518.789 131.844 519.164C131.547 519.534 131.32 519.984 131.164 520.516C131.008 521.042 130.93 521.635 130.93 522.297C130.93 523.182 131.055 523.945 131.305 524.586C131.555 525.221 131.935 525.711 132.445 526.055C132.956 526.393 133.602 526.562 134.383 526.562C134.867 526.562 135.339 526.516 135.797 526.422C136.255 526.328 136.729 526.201 137.219 526.039V527.633C136.755 527.815 136.286 527.948 135.812 528.031C135.339 528.115 134.792 528.156 134.172 528.156C133.005 528.156 132.036 527.914 131.266 527.43C130.5 526.945 129.927 526.263 129.547 525.383C129.172 524.503 128.984 523.471 128.984 522.289C128.984 521.424 129.104 520.633 129.344 519.914C129.583 519.195 129.932 518.576 130.391 518.055C130.849 517.529 131.414 517.125 132.086 516.844C132.763 516.557 133.536 516.414 134.406 516.414C134.979 516.414 135.542 516.479 136.094 516.609C136.651 516.734 137.167 516.914 137.641 517.148L136.984 518.695C136.589 518.508 136.174 518.346 135.742 518.211C135.31 518.076 134.862 518.008 134.398 518.008ZM142.883 516.578C143.867 516.578 144.68 516.698 145.32 516.938C145.966 517.177 146.445 517.542 146.758 518.031C147.076 518.521 147.234 519.143 147.234 519.898C147.234 520.461 147.13 520.94 146.922 521.336C146.714 521.732 146.44 522.06 146.102 522.32C145.763 522.581 145.401 522.789 145.016 522.945L148.258 528H146.141L143.383 523.422H141.547V528H139.672V516.578H142.883ZM142.758 518.141H141.547V521.875H142.844C143.714 521.875 144.344 521.714 144.734 521.391C145.13 521.068 145.328 520.591 145.328 519.961C145.328 519.299 145.117 518.831 144.695 518.555C144.279 518.279 143.633 518.141 142.758 518.141ZM156.359 528H149.891V516.578H156.359V518.156H151.766V521.258H156.07V522.828H151.766V526.414H156.359V528ZM165.906 528L164.789 524.828H160.422L159.305 528H157.328L161.578 516.531H163.656L167.898 528H165.906ZM164.305 523.219L163.219 520.094C163.177 519.958 163.117 519.768 163.039 519.523C162.961 519.273 162.883 519.021 162.805 518.766C162.727 518.505 162.661 518.286 162.609 518.109C162.557 518.323 162.492 518.562 162.414 518.828C162.341 519.089 162.268 519.333 162.195 519.562C162.128 519.792 162.076 519.969 162.039 520.094L160.945 523.219H164.305ZM173.367 528H171.484V518.172H168.141V516.578H176.703V518.172H173.367V528ZM178.453 528V516.578H180.328V528H178.453ZM193.484 522.273C193.484 523.154 193.372 523.956 193.148 524.68C192.93 525.398 192.599 526.018 192.156 526.539C191.714 527.055 191.159 527.453 190.492 527.734C189.826 528.016 189.044 528.156 188.148 528.156C187.237 528.156 186.445 528.016 185.773 527.734C185.107 527.453 184.552 527.052 184.109 526.531C183.672 526.01 183.344 525.388 183.125 524.664C182.906 523.94 182.797 523.138 182.797 522.258C182.797 521.081 182.99 520.055 183.375 519.18C183.766 518.299 184.357 517.617 185.148 517.133C185.945 516.643 186.951 516.398 188.164 516.398C189.352 516.398 190.339 516.641 191.125 517.125C191.911 517.609 192.5 518.292 192.891 519.172C193.286 520.047 193.484 521.081 193.484 522.273ZM184.766 522.273C184.766 523.154 184.885 523.917 185.125 524.562C185.365 525.203 185.732 525.698 186.227 526.047C186.727 526.391 187.367 526.562 188.148 526.562C188.935 526.562 189.576 526.391 190.07 526.047C190.565 525.698 190.93 525.203 191.164 524.562C191.398 523.917 191.516 523.154 191.516 522.273C191.516 520.935 191.247 519.888 190.711 519.133C190.18 518.372 189.331 517.992 188.164 517.992C187.383 517.992 186.74 518.164 186.234 518.508C185.734 518.852 185.365 519.344 185.125 519.984C184.885 520.62 184.766 521.383 184.766 522.273ZM205.469 528H203.164L197.57 518.883H197.5C197.521 519.19 197.539 519.516 197.555 519.859C197.576 520.203 197.591 520.557 197.602 520.922C197.617 521.286 197.63 521.656 197.641 522.031V528H195.938V516.578H198.227L203.812 525.633H203.867C203.857 525.367 203.844 525.062 203.828 524.719C203.812 524.375 203.797 524.021 203.781 523.656C203.771 523.286 203.763 522.93 203.758 522.586V516.578H205.469V528Z" fill="black"/>
<path d="M451.004 464H449.144V452.578H455.598V454.156H451.004V457.719H455.301V459.289H451.004V464ZM466.644 452.578V459.969C466.644 460.766 466.475 461.479 466.137 462.109C465.803 462.74 465.298 463.24 464.621 463.609C463.944 463.974 463.092 464.156 462.066 464.156C460.603 464.156 459.488 463.773 458.723 463.008C457.962 462.237 457.582 461.214 457.582 459.938V452.578H459.457V459.773C459.457 460.727 459.681 461.43 460.129 461.883C460.577 462.336 461.246 462.562 462.137 462.562C462.751 462.562 463.251 462.456 463.637 462.242C464.027 462.023 464.314 461.706 464.496 461.289C464.683 460.867 464.777 460.359 464.777 459.766V452.578H466.644ZM479.098 464H476.793L471.199 454.883H471.129C471.15 455.19 471.168 455.516 471.183 455.859C471.204 456.203 471.22 456.557 471.23 456.922C471.246 457.286 471.259 457.656 471.269 458.031V464H469.566V452.578H471.855L477.441 461.633H477.496C477.486 461.367 477.473 461.062 477.457 460.719C477.441 460.375 477.426 460.021 477.41 459.656C477.4 459.286 477.392 458.93 477.387 458.586V452.578H479.098V464ZM486.965 454.008C486.418 454.008 485.928 454.107 485.496 454.305C485.069 454.503 484.707 454.789 484.41 455.164C484.113 455.534 483.887 455.984 483.73 456.516C483.574 457.042 483.496 457.635 483.496 458.297C483.496 459.182 483.621 459.945 483.871 460.586C484.121 461.221 484.501 461.711 485.012 462.055C485.522 462.393 486.168 462.562 486.949 462.562C487.433 462.562 487.905 462.516 488.363 462.422C488.821 462.328 489.295 462.201 489.785 462.039V463.633C489.321 463.815 488.853 463.948 488.379 464.031C487.905 464.115 487.358 464.156 486.738 464.156C485.571 464.156 484.603 463.914 483.832 463.43C483.066 462.945 482.493 462.263 482.113 461.383C481.738 460.503 481.551 459.471 481.551 458.289C481.551 457.424 481.67 456.633 481.91 455.914C482.15 455.195 482.499 454.576 482.957 454.055C483.415 453.529 483.98 453.125 484.652 452.844C485.329 452.557 486.103 452.414 486.973 452.414C487.545 452.414 488.108 452.479 488.66 452.609C489.217 452.734 489.733 452.914 490.207 453.148L489.551 454.695C489.155 454.508 488.741 454.346 488.308 454.211C487.876 454.076 487.428 454.008 486.965 454.008ZM496.199 464H494.316V454.172H490.973V452.578H499.535V454.172H496.199V464ZM501.285 464V452.578H503.16V464H501.285ZM516.316 458.273C516.316 459.154 516.204 459.956 515.98 460.68C515.762 461.398 515.431 462.018 514.988 462.539C514.545 463.055 513.991 463.453 513.324 463.734C512.657 464.016 511.876 464.156 510.98 464.156C510.069 464.156 509.277 464.016 508.605 463.734C507.939 463.453 507.384 463.052 506.941 462.531C506.504 462.01 506.176 461.388 505.957 460.664C505.738 459.94 505.629 459.138 505.629 458.258C505.629 457.081 505.821 456.055 506.207 455.18C506.598 454.299 507.189 453.617 507.98 453.133C508.777 452.643 509.782 452.398 510.996 452.398C512.183 452.398 513.17 452.641 513.957 453.125C514.743 453.609 515.332 454.292 515.723 455.172C516.118 456.047 516.316 457.081 516.316 458.273ZM507.598 458.273C507.598 459.154 507.717 459.917 507.957 460.562C508.196 461.203 508.564 461.698 509.058 462.047C509.558 462.391 510.199 462.562 510.98 462.562C511.767 462.562 512.407 462.391 512.902 462.047C513.397 461.698 513.762 461.203 513.996 460.562C514.23 459.917 514.348 459.154 514.348 458.273C514.348 456.935 514.079 455.888 513.543 455.133C513.012 454.372 512.163 453.992 510.996 453.992C510.215 453.992 509.571 454.164 509.066 454.508C508.566 454.852 508.196 455.344 507.957 455.984C507.717 456.62 507.598 457.383 507.598 458.273ZM528.301 464H525.996L520.402 454.883H520.332C520.353 455.19 520.371 455.516 520.387 455.859C520.407 456.203 520.423 456.557 520.433 456.922C520.449 457.286 520.462 457.656 520.473 458.031V464H518.769V452.578H521.058L526.644 461.633H526.699C526.689 461.367 526.676 461.062 526.66 460.719C526.644 460.375 526.629 460.021 526.613 459.656C526.603 459.286 526.595 458.93 526.59 458.586V452.578H528.301V464ZM538.379 464L537.262 460.828H532.894L531.777 464H529.801L534.051 452.531H536.129L540.371 464H538.379ZM536.777 459.219L535.691 456.094C535.65 455.958 535.59 455.768 535.512 455.523C535.433 455.273 535.355 455.021 535.277 454.766C535.199 454.505 535.134 454.286 535.082 454.109C535.03 454.323 534.965 454.562 534.887 454.828C534.814 455.089 534.741 455.333 534.668 455.562C534.6 455.792 534.548 455.969 534.512 456.094L533.418 459.219H536.777ZM541.879 464V452.578H543.754V462.406H548.605V464H541.879ZM559.668 464L556.379 454.461H556.308C556.324 454.674 556.342 454.966 556.363 455.336C556.384 455.706 556.402 456.102 556.418 456.523C556.433 456.945 556.441 457.349 556.441 457.734V464H554.738V452.578H557.371L560.535 461.695H560.582L563.855 452.578H566.48V464H564.691V457.641C564.691 457.292 564.696 456.914 564.707 456.508C564.723 456.102 564.738 455.716 564.754 455.352C564.775 454.987 564.79 454.695 564.801 454.477H564.738L561.324 464H559.668ZM579.629 458.273C579.629 459.154 579.517 459.956 579.293 460.68C579.074 461.398 578.743 462.018 578.301 462.539C577.858 463.055 577.303 463.453 576.637 463.734C575.97 464.016 575.189 464.156 574.293 464.156C573.381 464.156 572.59 464.016 571.918 463.734C571.251 463.453 570.696 463.052 570.254 462.531C569.816 462.01 569.488 461.388 569.269 460.664C569.051 459.94 568.941 459.138 568.941 458.258C568.941 457.081 569.134 456.055 569.519 455.18C569.91 454.299 570.501 453.617 571.293 453.133C572.09 452.643 573.095 452.398 574.308 452.398C575.496 452.398 576.483 452.641 577.269 453.125C578.056 453.609 578.644 454.292 579.035 455.172C579.431 456.047 579.629 457.081 579.629 458.273ZM570.91 458.273C570.91 459.154 571.03 459.917 571.269 460.562C571.509 461.203 571.876 461.698 572.371 462.047C572.871 462.391 573.512 462.562 574.293 462.562C575.079 462.562 575.72 462.391 576.215 462.047C576.71 461.698 577.074 461.203 577.308 460.562C577.543 459.917 577.66 459.154 577.66 458.273C577.66 456.935 577.392 455.888 576.855 455.133C576.324 454.372 575.475 453.992 574.308 453.992C573.527 453.992 572.884 454.164 572.379 454.508C571.879 454.852 571.509 455.344 571.269 455.984C571.03 456.62 570.91 457.383 570.91 458.273ZM582.082 452.578H585.48C586.954 452.578 588.066 452.792 588.816 453.219C589.566 453.646 589.941 454.383 589.941 455.43C589.941 455.867 589.863 456.263 589.707 456.617C589.556 456.966 589.335 457.255 589.043 457.484C588.751 457.708 588.392 457.859 587.965 457.938V458.016C588.407 458.094 588.801 458.232 589.144 458.43C589.493 458.628 589.767 458.911 589.965 459.281C590.168 459.651 590.269 460.13 590.269 460.719C590.269 461.417 590.103 462.01 589.769 462.5C589.441 462.99 588.97 463.362 588.355 463.617C587.746 463.872 587.022 464 586.183 464H582.082V452.578ZM583.957 457.289H585.754C586.603 457.289 587.191 457.151 587.519 456.875C587.848 456.599 588.012 456.195 588.012 455.664C588.012 455.122 587.816 454.732 587.426 454.492C587.04 454.253 586.426 454.133 585.582 454.133H583.957V457.289ZM583.957 458.805V462.43H585.933C586.808 462.43 587.423 462.26 587.777 461.922C588.131 461.583 588.308 461.125 588.308 460.547C588.308 460.193 588.228 459.885 588.066 459.625C587.91 459.365 587.652 459.164 587.293 459.023C586.933 458.878 586.449 458.805 585.84 458.805H583.957ZM592.629 464V452.578H594.504V464H592.629ZM597.519 464V452.578H599.394V462.406H604.246V464H597.519ZM612.691 464H606.223V452.578H612.691V454.156H608.098V457.258H612.402V458.828H608.098V462.414H612.691V464ZM456.223 496L455.105 492.828H450.738L449.621 496H447.644L451.894 484.531H453.973L458.215 496H456.223ZM454.621 491.219L453.535 488.094C453.493 487.958 453.433 487.768 453.355 487.523C453.277 487.273 453.199 487.021 453.121 486.766C453.043 486.505 452.978 486.286 452.926 486.109C452.874 486.323 452.808 486.562 452.73 486.828C452.657 487.089 452.585 487.333 452.512 487.562C452.444 487.792 452.392 487.969 452.355 488.094L451.262 491.219H454.621ZM463.043 484.578C464.517 484.578 465.592 484.88 466.269 485.484C466.946 486.089 467.285 486.935 467.285 488.023C467.285 488.518 467.207 488.99 467.051 489.438C466.9 489.88 466.65 490.273 466.301 490.617C465.952 490.956 465.491 491.224 464.918 491.422C464.35 491.62 463.65 491.719 462.816 491.719H461.598V496H459.723V484.578H463.043ZM462.918 486.133H461.598V490.156H462.621C463.21 490.156 463.71 490.089 464.121 489.953C464.532 489.812 464.845 489.591 465.058 489.289C465.272 488.987 465.379 488.589 465.379 488.094C465.379 487.432 465.178 486.94 464.777 486.617C464.381 486.294 463.762 486.133 462.918 486.133ZM472.887 484.578C474.361 484.578 475.436 484.88 476.113 485.484C476.79 486.089 477.129 486.935 477.129 488.023C477.129 488.518 477.051 488.99 476.894 489.438C476.743 489.88 476.493 490.273 476.144 490.617C475.795 490.956 475.335 491.224 474.762 491.422C474.194 491.62 473.493 491.719 472.66 491.719H471.441V496H469.566V484.578H472.887ZM472.762 486.133H471.441V490.156H472.465C473.053 490.156 473.553 490.089 473.965 489.953C474.376 489.812 474.689 489.591 474.902 489.289C475.116 488.987 475.223 488.589 475.223 488.094C475.223 487.432 475.022 486.94 474.621 486.617C474.225 486.294 473.605 486.133 472.762 486.133ZM486.004 492.891C486.004 493.568 485.837 494.151 485.504 494.641C485.176 495.13 484.702 495.505 484.082 495.766C483.467 496.026 482.733 496.156 481.879 496.156C481.462 496.156 481.064 496.133 480.683 496.086C480.303 496.039 479.944 495.971 479.605 495.883C479.272 495.789 478.967 495.677 478.691 495.547V493.781C479.155 493.984 479.673 494.169 480.246 494.336C480.819 494.497 481.402 494.578 481.996 494.578C482.48 494.578 482.881 494.516 483.199 494.391C483.522 494.26 483.762 494.078 483.918 493.844C484.074 493.604 484.152 493.326 484.152 493.008C484.152 492.669 484.061 492.383 483.879 492.148C483.696 491.914 483.42 491.701 483.051 491.508C482.686 491.31 482.228 491.099 481.676 490.875C481.301 490.724 480.941 490.552 480.598 490.359C480.259 490.167 479.957 489.94 479.691 489.68C479.426 489.419 479.215 489.112 479.058 488.758C478.907 488.398 478.832 487.977 478.832 487.492C478.832 486.846 478.986 486.294 479.293 485.836C479.605 485.378 480.043 485.026 480.605 484.781C481.173 484.536 481.835 484.414 482.59 484.414C483.189 484.414 483.751 484.477 484.277 484.602C484.808 484.727 485.329 484.904 485.84 485.133L485.246 486.641C484.777 486.448 484.321 486.294 483.879 486.18C483.441 486.065 482.993 486.008 482.535 486.008C482.139 486.008 481.803 486.068 481.527 486.188C481.251 486.307 481.04 486.477 480.894 486.695C480.754 486.909 480.683 487.164 480.683 487.461C480.683 487.794 480.764 488.076 480.926 488.305C481.092 488.529 481.348 488.734 481.691 488.922C482.04 489.109 482.488 489.318 483.035 489.547C483.665 489.807 484.199 490.081 484.637 490.367C485.079 490.654 485.418 490.997 485.652 491.398C485.887 491.794 486.004 492.292 486.004 492.891Z" fill="black"/>
<path d="M466.43 270L463.141 260.461H463.07C463.086 260.674 463.104 260.966 463.125 261.336C463.146 261.706 463.164 262.102 463.18 262.523C463.195 262.945 463.203 263.349 463.203 263.734V270H461.5V258.578H464.133L467.297 267.695H467.344L470.617 258.578H473.242V270H471.453V263.641C471.453 263.292 471.458 262.914 471.469 262.508C471.484 262.102 471.5 261.716 471.516 261.352C471.536 260.987 471.552 260.695 471.562 260.477H471.5L468.086 270H466.43ZM486.391 264.273C486.391 265.154 486.279 265.956 486.055 266.68C485.836 267.398 485.505 268.018 485.062 268.539C484.62 269.055 484.065 269.453 483.398 269.734C482.732 270.016 481.951 270.156 481.055 270.156C480.143 270.156 479.352 270.016 478.68 269.734C478.013 269.453 477.458 269.052 477.016 268.531C476.578 268.01 476.25 267.388 476.031 266.664C475.812 265.94 475.703 265.138 475.703 264.258C475.703 263.081 475.896 262.055 476.281 261.18C476.672 260.299 477.263 259.617 478.055 259.133C478.852 258.643 479.857 258.398 481.07 258.398C482.258 258.398 483.245 258.641 484.031 259.125C484.818 259.609 485.406 260.292 485.797 261.172C486.193 262.047 486.391 263.081 486.391 264.273ZM477.672 264.273C477.672 265.154 477.792 265.917 478.031 266.562C478.271 267.203 478.638 267.698 479.133 268.047C479.633 268.391 480.273 268.562 481.055 268.562C481.841 268.562 482.482 268.391 482.977 268.047C483.471 267.698 483.836 267.203 484.07 266.562C484.305 265.917 484.422 265.154 484.422 264.273C484.422 262.935 484.154 261.888 483.617 261.133C483.086 260.372 482.237 259.992 481.07 259.992C480.289 259.992 479.646 260.164 479.141 260.508C478.641 260.852 478.271 261.344 478.031 261.984C477.792 262.62 477.672 263.383 477.672 264.273ZM498.117 264.18C498.117 265.466 497.878 266.542 497.398 267.406C496.919 268.266 496.224 268.914 495.312 269.352C494.401 269.784 493.302 270 492.016 270H488.844V258.578H492.359C493.542 258.578 494.562 258.792 495.422 259.219C496.281 259.641 496.945 260.268 497.414 261.102C497.883 261.93 498.117 262.956 498.117 264.18ZM496.164 264.234C496.164 263.297 496.016 262.526 495.719 261.922C495.427 261.318 494.995 260.87 494.422 260.578C493.854 260.281 493.154 260.133 492.32 260.133H490.719V268.43H492.047C493.427 268.43 494.458 268.078 495.141 267.375C495.823 266.672 496.164 265.625 496.164 264.234ZM507.047 270H500.578V258.578H507.047V260.156H502.453V263.258H506.758V264.828H502.453V268.414H507.047V270ZM512.727 258.578C513.711 258.578 514.523 258.698 515.164 258.938C515.81 259.177 516.289 259.542 516.602 260.031C516.919 260.521 517.078 261.143 517.078 261.898C517.078 262.461 516.974 262.94 516.766 263.336C516.557 263.732 516.284 264.06 515.945 264.32C515.607 264.581 515.245 264.789 514.859 264.945L518.102 270H515.984L513.227 265.422H511.391V270H509.516V258.578H512.727ZM512.602 260.141H511.391V263.875H512.688C513.557 263.875 514.188 263.714 514.578 263.391C514.974 263.068 515.172 262.591 515.172 261.961C515.172 261.299 514.961 260.831 514.539 260.555C514.122 260.279 513.477 260.141 512.602 260.141ZM529.266 270H526.961L521.367 260.883H521.297C521.318 261.19 521.336 261.516 521.352 261.859C521.372 262.203 521.388 262.557 521.398 262.922C521.414 263.286 521.427 263.656 521.438 264.031V270H519.734V258.578H522.023L527.609 267.633H527.664C527.654 267.367 527.641 267.062 527.625 266.719C527.609 266.375 527.594 266.021 527.578 265.656C527.568 265.286 527.56 264.93 527.555 264.586V258.578H529.266V270ZM549.93 258.578L546.945 270H544.898L542.992 263.156C542.945 262.99 542.893 262.792 542.836 262.562C542.779 262.333 542.721 262.099 542.664 261.859C542.612 261.62 542.565 261.401 542.523 261.203C542.487 261 542.461 260.844 542.445 260.734C542.435 260.844 542.411 260.997 542.375 261.195C542.339 261.393 542.294 261.612 542.242 261.852C542.195 262.086 542.143 262.32 542.086 262.555C542.029 262.784 541.977 262.987 541.93 263.164L540.055 270H538.016L535.039 258.578H536.922L538.57 265.273C538.622 265.487 538.674 265.719 538.727 265.969C538.784 266.214 538.836 266.461 538.883 266.711C538.935 266.961 538.982 267.206 539.023 267.445C539.065 267.68 539.099 267.893 539.125 268.086C539.151 267.888 539.185 267.669 539.227 267.43C539.268 267.185 539.312 266.938 539.359 266.688C539.411 266.432 539.464 266.188 539.516 265.953C539.573 265.719 539.63 265.508 539.688 265.32L541.547 258.578H543.375L545.273 265.344C545.331 265.536 545.385 265.753 545.438 265.992C545.495 266.232 545.549 266.477 545.602 266.727C545.654 266.977 545.701 267.219 545.742 267.453C545.784 267.688 545.818 267.898 545.844 268.086C545.88 267.831 545.927 267.539 545.984 267.211C546.042 266.883 546.107 266.549 546.18 266.211C546.253 265.872 546.326 265.56 546.398 265.273L548.039 258.578H549.93ZM558.016 270H551.547V258.578H558.016V260.156H553.422V263.258H557.727V264.828H553.422V268.414H558.016V270ZM560.484 258.578H563.883C565.357 258.578 566.469 258.792 567.219 259.219C567.969 259.646 568.344 260.383 568.344 261.43C568.344 261.867 568.266 262.263 568.109 262.617C567.958 262.966 567.737 263.255 567.445 263.484C567.154 263.708 566.794 263.859 566.367 263.938V264.016C566.81 264.094 567.203 264.232 567.547 264.43C567.896 264.628 568.169 264.911 568.367 265.281C568.57 265.651 568.672 266.13 568.672 266.719C568.672 267.417 568.505 268.01 568.172 268.5C567.844 268.99 567.372 269.362 566.758 269.617C566.148 269.872 565.424 270 564.586 270H560.484V258.578ZM562.359 263.289H564.156C565.005 263.289 565.594 263.151 565.922 262.875C566.25 262.599 566.414 262.195 566.414 261.664C566.414 261.122 566.219 260.732 565.828 260.492C565.443 260.253 564.828 260.133 563.984 260.133H562.359V263.289ZM562.359 264.805V268.43H564.336C565.211 268.43 565.826 268.26 566.18 267.922C566.534 267.583 566.711 267.125 566.711 266.547C566.711 266.193 566.63 265.885 566.469 265.625C566.312 265.365 566.055 265.164 565.695 265.023C565.336 264.878 564.852 264.805 564.242 264.805H562.359ZM584.461 264.18C584.461 265.466 584.221 266.542 583.742 267.406C583.263 268.266 582.568 268.914 581.656 269.352C580.745 269.784 579.646 270 578.359 270H575.188V258.578H578.703C579.885 258.578 580.906 258.792 581.766 259.219C582.625 259.641 583.289 260.268 583.758 261.102C584.227 261.93 584.461 262.956 584.461 264.18ZM582.508 264.234C582.508 263.297 582.359 262.526 582.062 261.922C581.771 261.318 581.339 260.87 580.766 260.578C580.198 260.281 579.497 260.133 578.664 260.133H577.062V268.43H578.391C579.771 268.43 580.802 268.078 581.484 267.375C582.167 266.672 582.508 265.625 582.508 264.234ZM593.391 270H586.922V258.578H593.391V260.156H588.797V263.258H593.102V264.828H588.797V268.414H593.391V270ZM602.453 266.891C602.453 267.568 602.286 268.151 601.953 268.641C601.625 269.13 601.151 269.505 600.531 269.766C599.917 270.026 599.182 270.156 598.328 270.156C597.911 270.156 597.513 270.133 597.133 270.086C596.753 270.039 596.393 269.971 596.055 269.883C595.721 269.789 595.417 269.677 595.141 269.547V267.781C595.604 267.984 596.122 268.169 596.695 268.336C597.268 268.497 597.852 268.578 598.445 268.578C598.93 268.578 599.331 268.516 599.648 268.391C599.971 268.26 600.211 268.078 600.367 267.844C600.523 267.604 600.602 267.326 600.602 267.008C600.602 266.669 600.51 266.383 600.328 266.148C600.146 265.914 599.87 265.701 599.5 265.508C599.135 265.31 598.677 265.099 598.125 264.875C597.75 264.724 597.391 264.552 597.047 264.359C596.708 264.167 596.406 263.94 596.141 263.68C595.875 263.419 595.664 263.112 595.508 262.758C595.357 262.398 595.281 261.977 595.281 261.492C595.281 260.846 595.435 260.294 595.742 259.836C596.055 259.378 596.492 259.026 597.055 258.781C597.622 258.536 598.284 258.414 599.039 258.414C599.638 258.414 600.201 258.477 600.727 258.602C601.258 258.727 601.779 258.904 602.289 259.133L601.695 260.641C601.227 260.448 600.771 260.294 600.328 260.18C599.891 260.065 599.443 260.008 598.984 260.008C598.589 260.008 598.253 260.068 597.977 260.188C597.701 260.307 597.49 260.477 597.344 260.695C597.203 260.909 597.133 261.164 597.133 261.461C597.133 261.794 597.214 262.076 597.375 262.305C597.542 262.529 597.797 262.734 598.141 262.922C598.49 263.109 598.938 263.318 599.484 263.547C600.115 263.807 600.648 264.081 601.086 264.367C601.529 264.654 601.867 264.997 602.102 265.398C602.336 265.794 602.453 266.292 602.453 266.891ZM604.656 270V258.578H606.531V270H604.656ZM614.156 263.797H618.422V269.531C617.823 269.729 617.203 269.883 616.562 269.992C615.922 270.102 615.203 270.156 614.406 270.156C613.245 270.156 612.26 269.927 611.453 269.469C610.651 269.005 610.042 268.336 609.625 267.461C609.208 266.581 609 265.521 609 264.281C609 263.089 609.232 262.055 609.695 261.18C610.159 260.299 610.833 259.62 611.719 259.141C612.604 258.656 613.677 258.414 614.938 258.414C615.557 258.414 616.156 258.477 616.734 258.602C617.318 258.721 617.852 258.888 618.336 259.102L617.68 260.648C617.294 260.466 616.862 260.312 616.383 260.188C615.904 260.062 615.406 260 614.891 260C614.073 260 613.367 260.177 612.773 260.531C612.185 260.885 611.732 261.385 611.414 262.031C611.096 262.672 610.938 263.43 610.938 264.305C610.938 265.154 611.065 265.898 611.32 266.539C611.576 267.18 611.974 267.68 612.516 268.039C613.062 268.393 613.768 268.57 614.633 268.57C615.065 268.57 615.432 268.547 615.734 268.5C616.036 268.453 616.315 268.401 616.57 268.344V265.398H614.156V263.797ZM630.688 270H628.383L622.789 260.883H622.719C622.74 261.19 622.758 261.516 622.773 261.859C622.794 262.203 622.81 262.557 622.82 262.922C622.836 263.286 622.849 263.656 622.859 264.031V270H621.156V258.578H623.445L629.031 267.633H629.086C629.076 267.367 629.062 267.062 629.047 266.719C629.031 266.375 629.016 266.021 629 265.656C628.99 265.286 628.982 264.93 628.977 264.586V258.578H630.688V270Z" fill="black"/>
<rect x="258.329" y="273" width="180.3" height="179" fill="#FF5454"/>
<path d="M221.342 362.854L315.925 268.428L348.125 174.5L381.742 268.428L475.617 362.146L388.117 449.5L348.125 549L308.133 449.5L221.342 362.854Z" fill="#FFBE5E"/>
<ellipse cx="348.479" cy="363" rx="70.1169" ry="70" fill="#37264D"/>
<defs>
<filter id="filter0_d_302_324" x="0" y="0" width="726" height="739" filterUnits="userSpaceOnUse" color-interpolation-filters="sRGB">
<feFlood flood-opacity="0" result="BackgroundImageFix"/>
<feColorMatrix in="SourceAlpha" type="matrix" values="0 0 0 0 0 0 0 0 0 0 0 0 0 0 0 0 0 0 127 0" result="hardAlpha"/>
<feMorphology radius="15" operator="dilate" in="SourceAlpha" result="effect1_dropShadow_302_324"/>
<feOffset/>
<feGaussianBlur stdDeviation="10.5"/>
<feComposite in2="hardAlpha" operator="out"/>
<feColorMatrix type="matrix" values="0 0 0 0 0.829167 0 0 0 0 0.829167 0 0 0 0 0.829167 0 0 0 0.25 0"/>
<feBlend mode="normal" in2="BackgroundImageFix" result="effect1_dropShadow_302_324"/>
<feBlend mode="normal" in="SourceGraphic" in2="effect1_dropShadow_302_324" result="shape"/>
</filter>
<radialGradient id="paint0_radial_302_324" cx="0" cy="0" r="1" gradientUnits="userSpaceOnUse" gradientTransform="translate(363 369.5) rotate(90) scale(384.5 377.006)">
<stop stop-color="#FFC570"/>
<stop offset="1" stop-color="#FFEACC" stop-opacity="0.15"/>
</radialGradient>
</defs>
</svg>
