<svg width="674" height="668" viewBox="0 0 674 668" fill="none" xmlns="http://www.w3.org/2000/svg">
<path d="M450.202 46.2015C450.202 46.2015 345.871 9.43349 243.458 67.9703C141.047 126.508 89.3711 242.711 44.9963 335.794C0.621489 428.877 26.1634 523.558 104.342 566.731C182.521 609.903 235.68 546.262 345.352 543.163C455.026 540.065 484.521 555.604 575.526 494.2C666.532 432.796 682.983 287.781 611.194 180.48C539.404 73.1794 450.202 46.2015 450.202 46.2015Z" fill="#FFBE5E"/>
<path opacity="0.7" d="M450.202 46.2015C450.202 46.2015 345.871 9.43349 243.458 67.9703C141.047 126.508 89.3711 242.711 44.9963 335.794C0.621489 428.877 26.1634 523.558 104.342 566.731C182.521 609.903 235.68 546.262 345.352 543.163C455.026 540.065 484.521 555.604 575.526 494.2C666.532 432.796 682.983 287.781 611.194 180.48C539.404 73.1794 450.202 46.2015 450.202 46.2015Z" fill="white"/>
<path d="M55.1723 378.494C55.1723 378.494 57.6863 383.201 55.4513 387.63C53.2163 392.059 50.4233 396.489 52.0988 398.704C53.7744 400.919 58.8024 403.687 58.2444 408.394C57.6849 413.101 50.9813 422.513 55.1723 427.773C59.3618 433.032 66.3458 432.756 66.6249 438.569C66.9039 444.383 59.9213 449.088 61.8759 454.348C63.8318 459.608 75.2831 460.716 75.2831 464.315C75.2831 467.914 70.8145 471.79 74.4446 475.665C78.0761 479.541 95.6446 489.652 98.1586 485.5C100.673 481.347 105.73 469.851 102.402 453.545C101.843 450.805 97.9093 450.196 97.3498 446.32C96.7918 442.444 98.4673 435.524 95.6743 431.648C92.8812 427.773 83.9426 426.388 83.3832 423.344C82.8251 420.298 86.7343 412.824 82.8251 408.117C78.9146 403.411 69.697 401.197 69.697 398.151C69.697 395.106 72.49 391.23 68.5795 387.077C64.6703 382.924 55.1723 378.494 55.1723 378.494Z" fill="#FFBE5E"/>
<path d="M68.5511 411.118C74.3651 428.521 84.5546 452.096 88.6916 463.485C93.7197 477.327 98.0899 487.347 100.325 501.19C102.56 515.032 103.776 607.737 103.776 607.737" stroke="#37264D" stroke-miterlimit="10" stroke-linecap="round" stroke-linejoin="round"/>
<path d="M56.5687 380.156C56.5687 380.156 61.3177 384.032 65.5073 400.919C65.7769 402.008 66.0883 403.158 66.4347 404.362" stroke="#37264D" stroke-miterlimit="10" stroke-linecap="round" stroke-linejoin="round"/>
<path d="M142.486 410.036C142.486 410.036 140.474 413.802 142.262 417.348C144.051 420.892 146.286 424.438 144.945 426.209C143.604 427.981 139.58 430.197 140.027 433.964C140.475 437.73 145.84 445.262 142.486 449.472C139.132 453.682 133.545 453.46 133.321 458.112C133.097 462.765 138.686 466.531 137.121 470.74C135.556 474.949 126.391 475.835 126.391 478.716C126.391 481.596 129.967 484.698 127.062 487.799C124.156 490.901 110.096 498.993 108.085 495.669C106.074 492.345 102.026 483.146 104.69 470.097C105.137 467.905 108.286 467.417 108.732 464.315C109.18 461.213 107.839 455.675 110.074 452.573C112.309 449.47 119.462 448.363 119.91 445.926C120.357 443.489 117.227 437.507 120.357 433.74C123.488 429.974 130.864 428.201 130.864 425.765C130.864 423.328 128.629 420.225 131.757 416.903C134.886 413.58 142.486 410.036 142.486 410.036Z" fill="#FFBE5E"/>
<path d="M131.78 436.143C127.127 450.07 118.973 468.936 115.661 478.052C111.637 489.13 108.139 497.148 106.35 508.226C104.562 519.305 103.588 593.495 103.588 593.495" stroke="#37264D" stroke-miterlimit="10" stroke-linecap="round" stroke-linejoin="round"/>
<path d="M141.369 411.365C141.369 411.365 137.569 414.467 134.215 427.982C133.999 428.853 133.75 429.774 133.474 430.738" stroke="#37264D" stroke-miterlimit="10" stroke-linecap="round" stroke-linejoin="round"/>
<path d="M65.6166 472.768C65.6166 472.768 67.2976 475.914 65.804 478.876C64.3104 481.838 62.4421 484.8 63.5622 486.28C64.6824 487.762 68.0443 489.612 67.671 492.758C67.2976 495.904 62.8155 502.198 65.6166 505.716C68.4177 509.234 73.0872 509.048 73.2746 512.936C73.462 516.824 68.7925 519.97 70.1 523.486C71.4076 527.004 79.0642 527.744 79.0642 530.15C79.0642 532.556 76.0757 535.148 78.5035 537.74C80.9312 540.332 92.6777 547.092 94.3587 544.316C96.0396 541.54 99.4217 533.854 97.1962 522.95C96.8228 521.119 94.1915 520.711 93.8181 518.119C93.4447 515.528 94.5649 510.9 92.6979 508.309C90.8309 505.717 84.8539 504.792 84.4805 502.757C84.1071 500.721 86.7222 495.723 84.1071 492.577C81.492 489.43 75.3289 487.949 75.3289 485.913C75.3289 483.876 77.1959 481.285 74.5821 478.508C71.967 475.73 65.6166 472.768 65.6166 472.768Z" fill="#FFBE5E"/>
<path d="M74.5619 494.581C78.4495 506.217 85.2623 521.979 88.0284 529.594C91.3903 538.85 94.3128 545.549 95.8064 554.805C97.3 564.061 98.1128 598.413 98.1128 598.413" stroke="#37264D" stroke-miterlimit="10" stroke-linecap="round" stroke-linejoin="round"/>
<path d="M66.5508 473.878C66.5508 473.878 69.7253 476.47 72.5278 487.76C72.7084 488.488 72.916 489.258 73.1479 490.062" stroke="#37264D" stroke-miterlimit="10" stroke-linecap="round" stroke-linejoin="round"/>
<path d="M161.819 468.158C161.819 468.158 159.456 470.84 160.227 474.062C160.998 477.285 162.132 480.591 160.699 481.778C159.266 482.965 155.566 484.005 155.203 487.152C154.841 490.3 157.751 497.444 154.211 500.232C150.671 503.02 146.169 501.78 145.089 505.522C144.009 509.265 147.828 513.386 145.744 516.514C143.66 519.641 136.035 518.625 135.478 520.967C134.923 523.309 137.233 526.51 134.271 528.482C131.31 530.453 118.314 534.371 117.319 531.286C116.324 528.201 114.808 519.952 119.491 509.843C120.278 508.144 122.932 508.344 123.895 505.906C124.857 503.468 124.834 498.709 127.251 496.61C129.668 494.511 135.699 494.965 136.533 493.068C137.368 491.171 135.975 485.712 139.248 483.242C142.52 480.772 148.862 480.728 149.333 478.746C149.803 476.764 148.583 473.818 151.77 471.708C154.954 469.6 161.819 468.158 161.819 468.158Z" fill="#FFBE5E"/>
<path d="M148.075 487.362C141.603 497.808 131.332 511.607 126.88 518.392C121.471 526.639 114.982 531.914 113.487 541.169C111.993 550.424 111.179 584.778 111.179 584.778" stroke="#37264D" stroke-miterlimit="10" stroke-linecap="round" stroke-linejoin="round"/>
<path d="M160.655 469.027C160.655 469.027 156.965 470.829 151.631 481.186C151.287 481.854 150.907 482.555 150.496 483.286" stroke="#37264D" stroke-miterlimit="10" stroke-linecap="round" stroke-linejoin="round"/>
<path d="M95.4774 618.17H116.251C127.182 612.581 134.947 598.442 134.947 581.873C134.947 570.997 131.6 561.171 126.21 554.117H85.5197C80.1304 561.171 76.782 570.997 76.782 581.873C76.782 598.442 84.5478 612.581 95.4774 618.17Z" fill="white" stroke="#37264D" stroke-miterlimit="10" stroke-linecap="round" stroke-linejoin="round"/>
<path d="M116.629 618.17H95.4774V621.24H116.629V618.17Z" fill="white" stroke="#37264D" stroke-miterlimit="10" stroke-linecap="round" stroke-linejoin="round"/>
<path d="M404.91 100.2H73.7855V348.588H404.91V100.2Z" stroke="#37264D" stroke-miterlimit="10" stroke-linecap="round" stroke-linejoin="round"/>
<path d="M397.18 106.78H81.5164V342.008H397.18V106.78Z" stroke="#37264D" stroke-miterlimit="10" stroke-linecap="round" stroke-linejoin="round"/>
<path d="M177.734 141.303C177.734 141.303 126.162 137.608 121.813 145.615C117.463 153.62 120.571 300.183 123.056 302.031C125.542 303.879 195.132 305.11 201.967 302.647C208.801 300.183 199.481 151.156 199.481 146.846C199.481 142.535 183.327 140.689 183.327 140.689" stroke="#37264D" stroke-width="2" stroke-miterlimit="10" stroke-linecap="round" stroke-linejoin="round"/>
<path d="M127.143 262.619C127.246 281.941 127.67 296.1 128.648 296.486C131.755 297.718 197.617 303.26 199.481 297.102C201.345 290.945 194.51 151.771 194.51 151.771" stroke="#37264D" stroke-width="2" stroke-miterlimit="10" stroke-linecap="round" stroke-linejoin="round"/>
<path d="M192.024 151.156C192.024 151.156 129.268 148.693 128.646 151.772C128.25 153.734 127.098 211.441 127.118 253.382" stroke="#37264D" stroke-width="2" stroke-miterlimit="10" stroke-linecap="round" stroke-linejoin="round"/>
<path d="M130.511 162.24H191.403" stroke="#37264D" stroke-width="2" stroke-miterlimit="10" stroke-linecap="round" stroke-linejoin="round"/>
<path d="M185.811 159.453C182.082 163.355 185.811 159.453 188.297 153.878C190.782 148.303 185.811 154.993 180.22 159.453C174.628 163.912 177.734 160.568 179.598 154.435C181.462 148.303 177.734 154.435 172.764 158.337C167.792 162.24 170.278 160.567 172.142 153.878C174.007 147.188 172.142 153.878 164.687 158.337C157.231 162.797 160.958 162.797 164.687 156.108C168.415 149.418 162.201 156.108 155.366 158.337C148.532 160.567 155.366 158.337 157.852 152.205C160.338 146.073 153.504 153.878 148.532 157.223C143.561 160.568 148.532 157.223 149.775 153.321C151.018 149.418 146.668 154.435 141.698 159.453C136.726 164.471 141.698 159.453 142.319 154.993C142.941 150.534 136.728 162.241 136.728 162.241C136.728 162.241 138.592 151.091 137.349 153.879C136.106 156.666 134.242 158.897 134.242 158.897" stroke="#FFBE5E" stroke-width="2" stroke-miterlimit="10" stroke-linecap="round" stroke-linejoin="round"/>
<path d="M164.064 172.709H133.618V204.115H164.064V172.709Z" stroke="#FFBE5E" stroke-width="2" stroke-miterlimit="10" stroke-linecap="round" stroke-linejoin="round"/>
<path d="M139.831 172.709L134.861 178.252L145.424 174.556L134.861 184.409L152.258 173.325L134.861 191.799L158.472 174.556L133.618 197.342L163.442 177.02L133.618 204.115L163.442 184.409L142.316 202.884L164.064 191.183L150.394 202.268L163.442 197.958L160.957 202.268" stroke="#FFBE5E" stroke-width="2" stroke-miterlimit="10" stroke-linecap="round" stroke-linejoin="round"/>
<path d="M190.307 268.776H167.024V292.792H190.307V268.776Z" stroke="#FFBE5E" stroke-width="2" stroke-miterlimit="10" stroke-linecap="round" stroke-linejoin="round"/>
<path d="M171.776 268.776L167.974 273.014L176.051 270.189L167.974 277.724L181.279 269.247L167.974 283.374L186.031 270.189L167.024 287.613L189.831 272.072L167.024 292.792L189.831 277.724L173.676 291.851L190.307 282.903L179.853 291.379L189.831 288.083L187.93 291.379" stroke="#FFBE5E" stroke-width="2" stroke-miterlimit="10" stroke-linecap="round" stroke-linejoin="round"/>
<path d="M132.996 215.816H192.645" stroke="#37264D" stroke-width="2" stroke-miterlimit="10" stroke-linecap="round" stroke-linejoin="round"/>
<path d="M132.375 221.358L191.403 221.974" stroke="#37264D" stroke-width="2" stroke-miterlimit="10" stroke-linecap="round" stroke-linejoin="round"/>
<path d="M170.277 174.556H189.538" stroke="#37264D" stroke-width="2" stroke-miterlimit="10" stroke-linecap="round" stroke-linejoin="round"/>
<path d="M170.277 181.946H189.538" stroke="#37264D" stroke-width="2" stroke-miterlimit="10" stroke-linecap="round" stroke-linejoin="round"/>
<path d="M170.277 189.337H189.538" stroke="#37264D" stroke-width="2" stroke-miterlimit="10" stroke-linecap="round" stroke-linejoin="round"/>
<path d="M170.277 196.726H189.538" stroke="#37264D" stroke-width="2" stroke-miterlimit="10" stroke-linecap="round" stroke-linejoin="round"/>
<path d="M191.403 225.053H133.618V252.765H191.403V225.053Z" stroke="#FFBE5E" stroke-width="2" stroke-miterlimit="10" stroke-linecap="round" stroke-linejoin="round"/>
<path d="M132.996 230.595L141.074 225.669L131.754 239.832L147.288 225.669L133.618 245.991L157.851 225.053L136.725 249.685L162.821 225.669L142.938 249.685L171.52 225.053L148.531 252.149L177.112 225.669L155.365 250.917L184.568 225.053L162.199 252.149L191.403 225.053L170.277 251.533L190.16 234.29L177.112 250.301L190.16 241.68L187.6 245.803L185.19 249.685" stroke="#FFBE5E" stroke-width="2" stroke-miterlimit="10" stroke-linecap="round" stroke-linejoin="round"/>
<path d="M136.104 260.154H189.538" stroke="#37264D" stroke-width="2" stroke-miterlimit="10" stroke-linecap="round" stroke-linejoin="round"/>
<path d="M134.861 266.929H152.258" stroke="#37264D" stroke-width="2" stroke-miterlimit="10" stroke-linecap="round" stroke-linejoin="round"/>
<path d="M201.965 154.85L244.622 149.659" stroke="#37264D" stroke-width="2" stroke-miterlimit="10" stroke-linecap="round" stroke-linejoin="round"/>
<path d="M195.131 185.025H239.867" stroke="#37264D" stroke-width="2" stroke-miterlimit="10" stroke-linecap="round" stroke-linejoin="round"/>
<path d="M124.298 241.064L105.036 247.839" stroke="#37264D" stroke-width="2" stroke-miterlimit="10" stroke-linecap="round" stroke-linejoin="round"/>
<path d="M178.975 297.104C178.975 297.104 175.247 316.194 200.723 321.121" stroke="#37264D" stroke-width="2" stroke-miterlimit="10" stroke-linecap="round" stroke-linejoin="round"/>
<path d="M196.995 316.194L203.208 321.736L194.51 324.199" stroke="#37264D" stroke-width="2" stroke-miterlimit="10" stroke-linecap="round" stroke-linejoin="round"/>
<path d="M234.276 179.484L244.217 185.641L235.518 189.337" stroke="#37264D" stroke-width="2" stroke-miterlimit="10" stroke-linecap="round" stroke-linejoin="round"/>
<path d="M236.544 147.811L247.107 149.043L239.652 155.818" stroke="#37264D" stroke-width="2" stroke-miterlimit="10" stroke-linecap="round" stroke-linejoin="round"/>
<path d="M107.522 241.68L96.959 250.301L110.006 250.917" stroke="#37264D" stroke-width="2" stroke-miterlimit="10" stroke-linecap="round" stroke-linejoin="round"/>
<path d="M270.936 179.484H247.324V204.117H270.936V179.484Z" fill="#FFBE5E"/>
<path d="M252.916 185.025L266.586 185.641" stroke="#37264D" stroke-width="2" stroke-miterlimit="10" stroke-linecap="round" stroke-linejoin="round"/>
<path d="M252.916 189.952L266.586 190.568" stroke="#37264D" stroke-width="2" stroke-miterlimit="10" stroke-linecap="round" stroke-linejoin="round"/>
<path d="M252.916 194.878L266.586 195.494" stroke="#37264D" stroke-width="2" stroke-miterlimit="10" stroke-linecap="round" stroke-linejoin="round"/>
<path d="M233.353 212.687L209.904 215.424L212.818 239.885L236.267 237.149L233.353 212.687Z" fill="#FFBE5E"/>
<path d="M216.12 220.278L229.768 219.303" stroke="#37264D" stroke-width="2" stroke-miterlimit="10" stroke-linecap="round" stroke-linejoin="round"/>
<path d="M216.702 225.171L230.35 224.196" stroke="#37264D" stroke-width="2" stroke-miterlimit="10" stroke-linecap="round" stroke-linejoin="round"/>
<path d="M217.284 230.065L230.933 229.089" stroke="#37264D" stroke-width="2" stroke-miterlimit="10" stroke-linecap="round" stroke-linejoin="round"/>
<path d="M110.951 254.559L87.5015 257.296L90.4157 281.757L113.865 279.021L110.951 254.559Z" fill="#FFBE5E"/>
<path d="M93.7158 262.154L107.364 261.179" stroke="#37264D" stroke-width="2" stroke-miterlimit="10" stroke-linecap="round" stroke-linejoin="round"/>
<path d="M94.2981 267.046L107.947 266.071" stroke="#37264D" stroke-width="2" stroke-miterlimit="10" stroke-linecap="round" stroke-linejoin="round"/>
<path d="M94.8805 271.939L108.528 270.964" stroke="#37264D" stroke-width="2" stroke-miterlimit="10" stroke-linecap="round" stroke-linejoin="round"/>
<path d="M233.025 305.807L209.546 303.333L206.919 327.827L230.398 330.301L233.025 305.807Z" fill="#FFBE5E"/>
<path d="M214.527 309.423L228.056 311.466" stroke="#37264D" stroke-width="2" stroke-miterlimit="10" stroke-linecap="round" stroke-linejoin="round"/>
<path d="M214.003 314.321L227.53 316.365" stroke="#37264D" stroke-width="2" stroke-miterlimit="10" stroke-linecap="round" stroke-linejoin="round"/>
<path d="M213.477 319.22L227.005 321.264" stroke="#37264D" stroke-width="2" stroke-miterlimit="10" stroke-linecap="round" stroke-linejoin="round"/>
<path d="M404.897 348.588H73.7855V356.981H404.897V348.588Z" fill="#37264D" stroke="#37264D" stroke-miterlimit="10" stroke-linecap="round" stroke-linejoin="round"/>
<path d="M537.772 408.725V393.061H490.224V408.725C490.224 413.837 488.445 418.799 485.175 422.807L483.092 425.358H544.905L542.822 422.807C539.553 418.799 537.772 413.837 537.772 408.725Z" fill="#37264D" stroke="#37264D" stroke-miterlimit="10" stroke-linecap="round" stroke-linejoin="round"/>
<path d="M535.076 408.725V393.061H487.528V408.725C487.528 413.837 485.749 418.799 482.479 422.807L480.396 425.358H542.209L540.126 422.807C536.857 418.799 535.076 413.837 535.076 408.725Z" fill="white" stroke="#37264D" stroke-miterlimit="10" stroke-linecap="round" stroke-linejoin="round"/>
<path d="M535.459 397.484H487.721V402.284H535.459V397.484Z" fill="#37264D"/>
<path d="M595.416 398H427.191C420.874 398 415.754 392.926 415.754 386.665V270.267C415.754 264.007 420.875 258.933 427.191 258.933H595.416C601.732 258.933 606.852 264.008 606.852 270.267V386.665C606.852 392.924 601.731 398 595.416 398Z" fill="#37264D" stroke="#37264D" stroke-miterlimit="10" stroke-linecap="round" stroke-linejoin="round"/>
<path d="M600.541 398H432.317C426 398 420.881 392.926 420.881 386.665V270.267C420.881 264.007 426.002 258.933 432.317 258.933H600.542C606.859 258.933 611.978 264.008 611.978 270.267V386.665C611.978 392.924 606.857 398 600.541 398Z" fill="#37264D" stroke="#37264D" stroke-miterlimit="10" stroke-linecap="round" stroke-linejoin="round"/>
<path d="M595.416 398H427.191C420.874 398 415.754 392.926 415.754 386.665V376.383H606.852V386.665C606.852 392.924 601.731 398 595.416 398Z" fill="white" stroke="#37264D" stroke-miterlimit="10" stroke-linecap="round" stroke-linejoin="round"/>
<path d="M597.241 267.583H425.367V365.836H597.241V267.583Z" fill="white"/>
<path d="M485.188 355.141H451.363C449.104 355.141 447.272 353.325 447.272 351.086V281.875C447.272 279.635 449.104 277.819 451.363 277.819H485.188C487.448 277.819 489.279 279.634 489.279 281.875V351.086C489.279 353.325 487.448 355.141 485.188 355.141Z" fill="#37264D"/>
<path d="M485.756 284.307H450.797V348.653H485.756V284.307Z" fill="#FFBE5E"/>
<path d="M531.834 285.388H500.192V288.632H531.834V285.388Z" fill="#37264D"/>
<path d="M515.468 292.418H500.738V307.558H515.468V292.418Z" fill="#FFBE5E"/>
<path d="M529.652 338.919H521.761V347.03H529.652V338.919Z" fill="#FFBE5E"/>
<path d="M531.107 318.373H501.1V333.512H531.107V318.373Z" fill="#FFBE5E"/>
<path d="M518.195 293.499H530.198" stroke="#37264D" stroke-miterlimit="10" stroke-linecap="round" stroke-linejoin="round"/>
<path d="M518.195 297.284H530.198" stroke="#37264D" stroke-miterlimit="10" stroke-linecap="round" stroke-linejoin="round"/>
<path d="M518.195 301.069H530.198" stroke="#37264D" stroke-miterlimit="10" stroke-linecap="round" stroke-linejoin="round"/>
<path d="M518.195 304.854H530.198" stroke="#37264D" stroke-miterlimit="10" stroke-linecap="round" stroke-linejoin="round"/>
<path d="M501.646 313.506H530.562" stroke="#37264D" stroke-miterlimit="10" stroke-linecap="round" stroke-linejoin="round"/>
<path d="M501.646 337.297H530.562" stroke="#37264D" stroke-miterlimit="10" stroke-linecap="round" stroke-linejoin="round"/>
<path d="M534.561 282.145H497.463V350.275H534.561V282.145Z" stroke="#37264D" stroke-miterlimit="10" stroke-linecap="round" stroke-linejoin="round"/>
<path d="M579.846 282.145H544.929V307.558H579.846V282.145Z" fill="#BFBFBF"/>
<path d="M579.846 282.145H544.929V287.551H579.846V282.145Z" fill="#37264D"/>
<path d="M556.762 291.494H547.636V300.247H556.762V291.494Z" stroke="#37264D" stroke-miterlimit="10" stroke-linecap="round" stroke-linejoin="round"/>
<path d="M575.015 291.494H565.889V300.247H575.015V291.494Z" stroke="#37264D" stroke-miterlimit="10" stroke-linecap="round" stroke-linejoin="round"/>
<path d="M576.487 285.221C576.487 285.947 575.894 286.535 575.162 286.535C574.43 286.535 573.837 285.947 573.837 285.221C573.837 284.496 574.43 283.908 575.162 283.908C575.894 283.908 576.487 284.496 576.487 285.221Z" fill="white"/>
<path d="M568.833 286.535C569.565 286.535 570.158 285.947 570.158 285.221C570.158 284.496 569.565 283.908 568.833 283.908C568.101 283.908 567.508 284.496 567.508 285.221C567.508 285.947 568.101 286.535 568.833 286.535Z" fill="white"/>
<path d="M577.057 321.333H550.321V340.792H577.057V321.333Z" fill="#BFBFBF"/>
<path d="M577.057 321.333H550.321V325.474H577.057V321.333Z" fill="#37264D"/>
<path d="M574.485 323.69C574.485 324.246 574.031 324.696 573.47 324.696C572.909 324.696 572.455 324.246 572.455 323.69C572.455 323.134 572.909 322.684 573.47 322.684C574.031 322.684 574.485 323.134 574.485 323.69Z" fill="white"/>
<path d="M569.638 323.69C569.638 324.246 569.183 324.696 568.623 324.696C568.062 324.696 567.608 324.246 567.608 323.69C567.608 323.134 568.062 322.684 568.623 322.684C569.183 322.684 569.638 323.134 569.638 323.69Z" fill="white"/>
<path d="M442.256 272.739H431.023V360.024H442.256V272.739Z" fill="#BFBFBF"/>
<path d="M442.256 272.739H431.023V276.747H442.256V272.739Z" fill="#37264D"/>
<path d="M439.111 279.419H433.719V285.654H439.111V279.419Z" stroke="#37264D" stroke-miterlimit="10" stroke-linecap="round" stroke-linejoin="round"/>
<path d="M439.111 289.662H433.719V295.897H439.111V289.662Z" stroke="#37264D" stroke-miterlimit="10" stroke-linecap="round" stroke-linejoin="round"/>
<path d="M439.111 299.905H433.719V306.14H439.111V299.905Z" stroke="#37264D" stroke-miterlimit="10" stroke-linecap="round" stroke-linejoin="round"/>
<path d="M439.111 310.147H433.719V316.382H439.111V310.147Z" stroke="#37264D" stroke-miterlimit="10" stroke-linecap="round" stroke-linejoin="round"/>
<path d="M439.111 320.39H433.719V326.625H439.111V320.39Z" stroke="#37264D" stroke-miterlimit="10" stroke-linecap="round" stroke-linejoin="round"/>
<path d="M439.111 330.633H433.719V336.868H439.111V330.633Z" stroke="#37264D" stroke-miterlimit="10" stroke-linecap="round" stroke-linejoin="round"/>
<path d="M439.111 340.875H433.719V347.11H439.111V340.875Z" stroke="#37264D" stroke-miterlimit="10" stroke-linecap="round" stroke-linejoin="round"/>
<path d="M439.111 351.118H433.719V357.353H439.111V351.118Z" stroke="#37264D" stroke-miterlimit="10" stroke-linecap="round" stroke-linejoin="round"/>
<path d="M592.334 271.849H449.446V275.412H592.334V271.849Z" fill="#BFBFBF"/>
<path d="M592.334 358.243H449.446V361.806H592.334V358.243Z" fill="#BFBFBF"/>
<path d="M542.222 425.357H480.396V428.155H542.222V425.357Z" fill="#37264D" stroke="#37264D" stroke-miterlimit="10" stroke-linecap="round" stroke-linejoin="round"/>
<path d="M582.629 423.074H439.104V428.155H582.629V423.074Z" fill="white" stroke="#37264D" stroke-miterlimit="10" stroke-linecap="round" stroke-linejoin="round"/>
<path d="M310.505 621.24H304.663L301.743 443.997H313.425L310.505 621.24Z" fill="white" stroke="#37264D" stroke-miterlimit="10" stroke-linecap="round" stroke-linejoin="round"/>
<path d="M310.505 621.24H307.926L308.269 443.997H313.425L310.505 621.24Z" fill="#37264D" stroke="#37264D" stroke-miterlimit="10" stroke-linecap="round" stroke-linejoin="round"/>
<path d="M393.714 621.24H387.873L384.952 443.997H396.635L393.714 621.24Z" fill="white" stroke="#37264D" stroke-miterlimit="10" stroke-linecap="round" stroke-linejoin="round"/>
<path d="M393.714 621.24H391.137L391.479 443.997H396.636L393.714 621.24Z" fill="#37264D" stroke="#37264D" stroke-miterlimit="10" stroke-linecap="round" stroke-linejoin="round"/>
<path d="M363.917 621.24H358.075L355.155 443.997H366.837L363.917 621.24Z" fill="#37264D" stroke="#37264D" stroke-miterlimit="10" stroke-linecap="round" stroke-linejoin="round"/>
<path d="M363.917 621.24H361.338L361.68 443.997H366.837L363.917 621.24Z" fill="#37264D" stroke="#37264D" stroke-miterlimit="10" stroke-linecap="round" stroke-linejoin="round"/>
<path d="M420.139 621.24H414.298L411.377 443.997H423.06L420.139 621.24Z" fill="#37264D" stroke="#37264D" stroke-miterlimit="10" stroke-linecap="round" stroke-linejoin="round"/>
<path d="M420.139 621.24H417.562L417.904 443.997H423.06L420.139 621.24Z" fill="#37264D" stroke="#37264D" stroke-miterlimit="10" stroke-linecap="round" stroke-linejoin="round"/>
<path d="M424.528 446.698H332.885V557.586H424.528V446.698Z" fill="#37264D" stroke="#37264D" stroke-miterlimit="10" stroke-linecap="round" stroke-linejoin="round"/>
<path d="M399.228 446.698H307.584V557.586H399.228V446.698Z" fill="white" stroke="#37264D" stroke-miterlimit="10" stroke-linecap="round" stroke-linejoin="round"/>
<path d="M584.311 621.24H578.469L575.549 443.997H587.231L584.311 621.24Z" fill="white" stroke="#37264D" stroke-miterlimit="10" stroke-linecap="round" stroke-linejoin="round"/>
<path d="M584.311 621.24H581.732L582.075 443.997H587.231L584.311 621.24Z" fill="#37264D" stroke="#37264D" stroke-miterlimit="10" stroke-linecap="round" stroke-linejoin="round"/>
<path d="M637.723 621.24H631.88L628.961 443.997H640.642L637.723 621.24Z" fill="#37264D" stroke="#37264D" stroke-miterlimit="10" stroke-linecap="round" stroke-linejoin="round"/>
<path d="M637.723 621.24H635.144L635.486 443.997H640.642L637.723 621.24Z" fill="#37264D" stroke="#37264D" stroke-miterlimit="10" stroke-linecap="round" stroke-linejoin="round"/>
<path d="M644.328 437.312H294.038V449.504H644.328V437.312Z" fill="white" stroke="#37264D" stroke-miterlimit="10" stroke-linecap="round" stroke-linejoin="round"/>
<path d="M644.328 437.312H294.038V443.408H644.328V437.312Z" fill="#37264D" stroke="#37264D" stroke-miterlimit="10" stroke-linecap="round" stroke-linejoin="round"/>
<path d="M644.328 437.312H592.624V449.504H644.328V437.312Z" fill="#37264D" stroke="#37264D" stroke-miterlimit="10" stroke-linecap="round" stroke-linejoin="round"/>
<path d="M655.644 427.515H284.532V439.707H655.644V427.515Z" fill="white" stroke="#37264D" stroke-miterlimit="10" stroke-linecap="round" stroke-linejoin="round"/>
<path d="M655.644 427.515H603.94V439.707H655.644V427.515Z" fill="#37264D" stroke="#37264D" stroke-miterlimit="10" stroke-linecap="round" stroke-linejoin="round"/>
<path d="M393.616 457.357H313.41V496.101H393.616V457.357Z" fill="white" stroke="#37264D" stroke-miterlimit="10" stroke-linecap="round" stroke-linejoin="round"/>
<path d="M362.275 472.721H344.751V478.733H362.275V472.721Z" fill="#37264D" stroke="#37264D" stroke-miterlimit="10" stroke-linecap="round" stroke-linejoin="round"/>
<path d="M393.616 506.121H313.41V544.865H393.616V506.121Z" fill="white" stroke="#37264D" stroke-miterlimit="10" stroke-linecap="round" stroke-linejoin="round"/>
<path d="M362.275 521.485H344.751V527.497H362.275V521.485Z" fill="#37264D" stroke="#37264D" stroke-miterlimit="10" stroke-linecap="round" stroke-linejoin="round"/>
<path d="M517.089 517.656H541.053V469.887H517.089V517.656Z" fill="#37264D"/>
<path d="M523.08 566.855H535.062V500.69H523.08V566.855Z" fill="#37264D"/>
<path d="M533.944 561.765C533.944 561.765 544.011 573.087 569.891 577.034C583.564 579.12 597.792 581.712 610.145 588.193C618.09 592.361 633.901 601.482 633.901 611.904C633.901 617.06 629.683 621.24 624.481 621.24C619.279 621.24 615.062 617.06 615.062 611.904C615.062 609.439 616.044 607.213 617.619 605.545C616.306 603.427 607.736 590.656 589.7 586.77C570.014 582.528 555.644 584.255 527.952 566.007L533.944 561.765Z" fill="#37264D"/>
<path d="M525.379 561.765C525.379 561.765 515.312 573.087 489.432 577.034C475.759 579.12 461.531 581.712 449.178 588.193C441.233 592.361 425.422 601.482 425.422 611.904C425.422 617.06 429.64 621.24 434.842 621.24C440.044 621.24 444.262 617.06 444.262 611.904C444.262 609.439 443.279 607.213 441.705 605.545C443.018 603.427 451.587 590.656 469.623 586.77C489.308 582.528 503.679 584.255 531.371 566.007L525.379 561.765Z" fill="#37264D"/>
<path d="M524.968 603.717H534.031C534.519 603.717 534.913 604.108 534.913 604.592V620.364C534.913 620.847 534.517 621.239 534.031 621.239H524.968C524.48 621.239 524.085 620.847 524.085 620.364V604.593C524.085 604.11 524.48 603.717 524.968 603.717Z" fill="#37264D"/>
<path d="M526.931 621.24H532.067V563.346H526.931V621.24Z" fill="#37264D"/>
<path d="M587.112 331.945C584.346 346.97 582.212 363.404 581.709 379.853C581.33 392.247 581.122 402.871 580.937 412.242C580.363 441.342 580.044 457.487 575.419 461.833C574.826 462.228 571.005 464.571 562.987 465.233C560.748 465.417 553.641 465.52 543.963 465.565C513.266 465.474 481.006 465.223 480.491 465.219H478.618C478.536 465.289 478.474 465.362 478.397 465.433C459.965 465.333 455.217 465.222 454.877 465.219H453.005C449.139 468.546 451.449 472.822 454.807 472.853C457.335 472.876 501.266 473.231 531.308 473.231C536.628 473.231 541.626 473.221 546.067 473.194C553.368 473.217 560.333 473.231 566.356 473.231C582.091 473.231 595.122 473.135 598.672 472.841C609.791 471.925 614.776 468.199 615.308 467.779C622.719 461.253 623.003 446.948 623.685 412.39C623.869 403.038 624.077 392.437 624.456 380.085C624.961 363.538 627.16 346.991 629.984 331.944H587.112V331.945Z" fill="#37264D"/>
<path d="M348.795 581.383L351.828 597.081C351.828 597.081 349.132 602.759 338.685 607.435C328.238 612.111 323.183 614.115 323.183 615.451C323.183 616.787 322.509 619.793 325.205 620.795C327.901 621.797 385.191 620.795 385.191 620.795C385.191 620.795 388.224 619.459 388.224 613.113C388.224 606.767 385.528 595.077 385.528 592.405C385.528 589.733 383.63 583.295 383.63 582.392C383.63 581.489 360.59 582.719 360.59 582.719C360.59 582.719 353.85 576.373 348.795 581.383Z" fill="white" stroke="#37264D" stroke-miterlimit="10" stroke-linecap="round" stroke-linejoin="round"/>
<path d="M360.59 582.719C360.59 582.719 362.275 597.749 363.286 598.751C364.297 599.753 385.528 599.753 385.528 599.753" fill="white"/>
<path d="M360.59 582.719C360.59 582.719 362.275 597.749 363.286 598.751C364.297 599.753 385.528 599.753 385.528 599.753" stroke="#37264D" stroke-miterlimit="10" stroke-linecap="round" stroke-linejoin="round"/>
<path d="M385.528 592.405L361.938 592.74" stroke="#37264D" stroke-miterlimit="10" stroke-linecap="round" stroke-linejoin="round"/>
<path d="M323.183 618.123H387.55" stroke="#37264D" stroke-miterlimit="10" stroke-linecap="round" stroke-linejoin="round"/>
<path d="M390.917 393.122C390.917 393.122 372.23 455.458 369.952 464.042C367.672 472.625 380.891 548.062 380.891 549.417C380.891 550.771 382.713 554.837 382.713 559.355C382.713 563.873 380.891 565.228 381.802 566.583C382.713 567.938 385.904 571.1 385.448 573.811C384.993 576.521 384.537 577.425 382.713 579.231C380.891 581.038 379.067 581.49 379.067 581.49H368.128C368.128 581.49 365.393 561.163 358.1 507.409C350.807 453.655 362.658 422.937 364.937 413C367.217 403.063 371.774 394.479 371.774 394.479L390.917 393.122Z" fill="#37264D" stroke="#37264D" stroke-miterlimit="10" stroke-linecap="round" stroke-linejoin="round"/>
<path d="M333.293 581.383L336.326 597.081C336.326 597.081 333.63 602.759 323.183 607.435C312.736 612.111 307.681 614.115 307.681 615.451C307.681 616.787 307.007 619.793 309.703 620.795C312.399 621.797 369.689 620.795 369.689 620.795C369.689 620.795 372.722 619.459 372.722 613.113C372.722 606.767 370.026 595.077 370.026 592.405C370.026 589.733 368.128 583.295 368.128 582.392C368.128 581.489 345.088 582.719 345.088 582.719C345.088 582.719 338.348 576.373 333.293 581.383Z" fill="white" stroke="#37264D" stroke-miterlimit="10" stroke-linecap="round" stroke-linejoin="round"/>
<path d="M345.088 582.719C345.088 582.719 346.773 597.749 347.784 598.751C348.795 599.753 370.026 599.753 370.026 599.753" fill="white"/>
<path d="M345.088 582.719C345.088 582.719 346.773 597.749 347.784 598.751C348.795 599.753 370.026 599.753 370.026 599.753" stroke="#37264D" stroke-miterlimit="10" stroke-linecap="round" stroke-linejoin="round"/>
<path d="M370.026 592.405L346.436 592.74" stroke="#37264D" stroke-miterlimit="10" stroke-linecap="round" stroke-linejoin="round"/>
<path d="M307.681 618.123H372.048" stroke="#37264D" stroke-miterlimit="10" stroke-linecap="round" stroke-linejoin="round"/>
<path d="M315.715 393.122C315.715 393.122 315.259 432.422 317.538 449.135C319.817 465.848 328.477 504.697 329.843 525.927C331.21 547.157 333.49 557.096 333.49 557.096C333.49 557.096 330.299 559.807 330.299 562.516C330.299 565.227 332.123 565.227 331.666 569.292C331.21 573.358 329.388 574.712 330.755 576.52C332.122 578.326 333.034 581.94 337.592 582.843C342.149 583.746 363.57 583.295 368.129 582.392C372.687 581.489 374.966 576.972 374.966 573.358C374.966 569.744 373.6 567.033 373.6 562.968C373.6 558.902 375.878 555.288 375.878 552.578C375.878 549.867 374.966 548.512 374.966 545.801C374.966 543.091 369.042 499.727 369.042 490.691C369.042 481.657 368.586 450.94 369.953 443.261C371.32 435.581 378.157 398.992 378.157 398.992L315.715 393.122Z" fill="#FFBE5E" stroke="#37264D" stroke-miterlimit="10" stroke-linecap="round" stroke-linejoin="round"/>
<path d="M344.599 406.378C344.599 406.378 352.373 409.217 361.375 409.622C370.376 410.028 374.468 410.839 374.468 410.839L376.922 399.484L344.599 406.378Z" fill="#37264D" stroke="#37264D" stroke-miterlimit="10" stroke-linecap="round" stroke-linejoin="round"/>
<path d="M339.603 408.32C339.603 408.32 341.839 470.395 346.313 491.086C350.787 511.778 356.752 545.769 355.261 550.204C353.77 554.638 351.533 564.984 351.533 564.984C351.533 564.984 359.734 563.506 359.734 567.939C359.734 572.373 347.804 575.328 350.786 577.546C353.769 579.763 356.729 582.205 356.729 582.205" stroke="#37264D" stroke-miterlimit="10" stroke-linecap="round" stroke-linejoin="round"/>
<path d="M366.095 566.958C366.095 566.958 341.346 570.936 348.369 572.262C355.392 573.588 368.771 571.931 369.44 570.273C370.11 568.615 368.102 566.626 366.095 566.958Z" fill="#37264D" stroke="#37264D" stroke-miterlimit="10" stroke-linecap="round" stroke-linejoin="round"/>
<path d="M256.848 137.811L256.166 165.544L282.556 165.319L282.783 137.585L256.848 137.811Z" fill="#FFBE5E"/>
<path d="M286.879 188.993C286.879 188.993 281.191 183.357 278.688 178.17C276.186 172.984 272.545 169.828 272.545 166.22C272.545 162.613 274.137 154.269 273.455 150.888C272.773 147.506 273.455 140.516 275.731 140.516C278.006 140.516 279.598 142.546 279.144 144.801C278.688 147.056 280.509 154.948 280.509 154.948C280.509 154.948 282.329 139.84 282.557 138.939C282.785 138.037 285.97 138.037 287.334 138.713C288.7 139.389 290.292 139.164 290.292 142.096C290.292 145.027 289.61 148.41 289.61 149.086C289.61 149.762 295.98 153.37 296.207 156.076C296.435 158.781 295.751 165.321 294.159 168.026C292.567 170.731 291.657 172.535 291.429 173.437C291.202 174.339 297.572 183.808 297.572 183.808L286.879 188.993Z" fill="white" stroke="#37264D" stroke-miterlimit="10" stroke-linecap="round" stroke-linejoin="round"/>
<path d="M297.483 179.46L281.987 191.204C281.987 191.204 308.421 245.411 309.334 247.217C310.245 249.025 329.388 260.768 329.388 260.768L358.102 225.534C358.102 225.534 322.095 214.241 321.184 212.886C320.273 211.532 297.483 179.46 297.483 179.46Z" fill="#37264D" stroke="#37264D" stroke-miterlimit="10" stroke-linecap="round" stroke-linejoin="round"/>
<path d="M315.769 378.645L314.421 399.687C314.421 399.687 331.945 407.035 350.817 406.701C369.689 406.367 394.964 399.019 394.964 399.019L398.671 378.311C398.671 378.311 353.176 381.985 339.359 380.649C325.542 379.313 315.769 378.645 315.769 378.645Z" fill="white" stroke="#37264D" stroke-miterlimit="10" stroke-linecap="round" stroke-linejoin="round"/>
<path d="M302.289 371.965L301.278 377.977C301.278 377.977 315.557 385.702 347.11 388.665C379.125 391.671 404.737 382.653 404.737 382.653L405.074 372.299C405.074 372.299 380.136 378.645 353.85 378.311C327.564 377.977 302.289 371.965 302.289 371.965Z" fill="#37264D" stroke="#37264D" stroke-miterlimit="10" stroke-linecap="round" stroke-linejoin="round"/>
<path d="M327.901 247.717C327.901 247.717 316.78 267.089 313.073 282.119C309.366 297.149 301.952 366.621 300.941 370.629C299.93 374.637 323.52 382.653 339.022 382.987C354.524 383.321 389.235 383.989 395.301 381.651C401.367 379.313 407.096 375.973 407.096 372.299C407.096 368.625 407.433 354.931 407.433 343.909C407.433 332.887 404.063 274.771 401.03 261.411C397.997 248.051 395.975 238.699 394.964 237.029C393.953 235.359 386.539 227.343 371.374 228.345C356.209 229.347 343.403 235.025 337.674 238.365C331.945 241.705 327.901 247.717 327.901 247.717Z" fill="#37264D" stroke="#37264D" stroke-miterlimit="10" stroke-linecap="round" stroke-linejoin="round"/>
<path d="M226.262 269.311C226.262 269.311 220.793 271.57 220.337 276.99C219.882 282.41 229.908 287.832 235.834 295.963C241.758 304.094 249.507 312.676 249.507 312.676L261.357 328.938L275.485 317.193L239.023 275.184C239.023 275.184 240.846 271.119 238.568 269.764C236.29 268.408 230.364 267.505 226.262 269.311Z" fill="white" stroke="#37264D" stroke-miterlimit="10" stroke-linecap="round" stroke-linejoin="round"/>
<path d="M227.174 281.96L268.194 268.409C268.194 268.409 270.929 279.702 283.235 291.447C295.541 303.192 306.935 310.871 306.935 310.871L270.018 331.65L227.174 281.96Z" fill="white" stroke="#37264D" stroke-miterlimit="10" stroke-linecap="round" stroke-linejoin="round"/>
<path d="M227.174 281.96C227.174 281.96 229.909 279.249 230.365 274.732C230.821 270.215 226.263 269.312 226.263 269.312L266.827 257.567C266.827 257.567 274.575 260.278 268.194 268.409L227.174 281.96Z" fill="white" stroke="#37264D" stroke-miterlimit="10" stroke-linecap="round" stroke-linejoin="round"/>
<path d="M281.531 324.913C281.531 324.913 272.416 323.558 271.96 320.847C271.505 318.136 269.681 312.265 267.858 310.005C266.034 307.746 257.375 303.229 254.641 300.068C251.906 296.906 250.084 292.389 248.261 292.841C246.437 293.292 243.703 295.1 244.615 296.906C245.526 298.712 249.628 306.392 249.628 306.392L250.539 309.554C250.539 309.554 242.335 308.199 240.968 307.748C239.602 307.296 237.778 308.199 237.778 310.458C237.778 312.718 235.954 312.718 238.233 314.072C240.513 315.427 243.247 317.235 243.247 317.235C243.247 317.235 246.437 324.462 247.348 325.817C248.26 327.172 255.552 330.334 256.919 331.237C258.286 332.14 265.579 334.399 269.225 335.303C272.872 336.206 281.075 339.368 281.075 339.368L283.355 328.978L281.531 324.913Z" fill="white" stroke="#37264D" stroke-miterlimit="10" stroke-linecap="round" stroke-linejoin="round"/>
<path d="M378.156 262.575C378.156 262.575 377.244 300.971 377.244 302.778C377.244 304.584 378.611 341.626 374.509 344.787C370.407 347.949 350.353 352.015 321.184 351.112C292.014 350.208 279.253 343.884 279.253 343.884L281.532 324.911L337.137 320.846C337.137 320.846 331.213 278.837 332.124 264.381C333.035 249.926 344.886 242.246 344.886 242.246" fill="#37264D"/>
<path d="M378.156 262.575C378.156 262.575 377.244 300.971 377.244 302.778C377.244 304.584 378.611 341.626 374.509 344.787C370.407 347.949 350.353 352.015 321.184 351.112C292.014 350.208 279.253 343.884 279.253 343.884L281.532 324.911L337.137 320.846C337.137 320.846 331.213 278.837 332.124 264.381C333.035 249.926 344.886 242.246 344.886 242.246" stroke="#37264D" stroke-miterlimit="10" stroke-linecap="round" stroke-linejoin="round"/>
<path d="M316.788 352.792C316.788 352.792 371.986 354.712 374.892 347.993C377.797 341.275 377.797 275.05 377.797 275.05" stroke="#707070" stroke-miterlimit="10" stroke-linecap="round" stroke-linejoin="round"/>
<path d="M340.997 250.097C340.997 250.097 329.376 262.573 331.313 278.89C333.25 295.207 337.135 320.847 337.135 320.847L315.819 322.08" stroke="#707070" stroke-miterlimit="10" stroke-linecap="round" stroke-linejoin="round"/>
<path d="M317.492 145.783C317.492 145.783 309.854 158.885 311.322 160.633C312.791 162.38 311.616 165.583 311.616 165.583C311.616 165.583 303.978 171.406 304.564 173.444C305.152 175.481 311.322 181.013 311.322 181.013C311.322 181.013 312.497 196.737 313.965 198.192C315.435 199.648 325.423 201.394 327.479 201.685C329.536 201.977 330.71 202.559 330.71 202.559L336.586 234.004L369.489 204.596L364.201 190.62C364.201 190.62 361.264 171.986 361.558 163.251C361.852 154.516 346.575 144.034 337.468 141.414C328.362 138.796 317.492 145.783 317.492 145.783Z" fill="white" stroke="#37264D" stroke-miterlimit="10" stroke-linecap="round" stroke-linejoin="round"/>
<path d="M323.661 128.022C323.661 128.022 316.024 120.161 306.917 126.275C297.809 132.39 300.453 142.288 308.68 145.783C316.905 149.277 326.6 146.657 323.369 150.15C320.138 153.644 319.256 161.215 324.251 162.67C329.245 164.126 328.363 169.657 328.363 171.987C328.363 174.317 332.476 174.025 333.358 171.987C334.239 169.949 336.589 164.417 342.171 166.746C347.753 169.075 347.459 181.887 345.402 185.089C343.345 188.292 341.289 188.001 341.289 188.001C341.289 188.001 344.52 189.166 342.465 192.95C340.409 196.735 340.409 196.735 340.409 196.735C340.409 196.735 345.109 202.268 356.86 200.229C368.61 198.19 371.255 192.95 369.492 188.583C367.729 184.216 363.616 183.633 368.023 177.228C372.429 170.822 383.308 163.253 382.418 148.694C381.83 139.086 358.916 130.06 358.916 130.06C358.916 130.06 364.204 121.325 352.158 115.792C340.114 110.26 326.306 116.666 327.188 122.488C328.068 128.313 323.661 128.022 323.661 128.022Z" fill="#37264D" stroke="#37264D" stroke-miterlimit="10" stroke-linecap="round" stroke-linejoin="round"/>
<path d="M311.234 159.579C311.234 159.579 307.504 158.594 307.21 160.341C306.917 162.089 307.21 170.824 307.21 170.824C307.21 170.824 309.56 172.28 311.617 171.697C313.673 171.115 312.499 163.836 312.499 163.836" stroke="#37264D" stroke-miterlimit="10" stroke-linecap="round" stroke-linejoin="round"/>
<path d="M334.532 169.367L307.475 164.933L307.503 163.253L334.532 169.367Z" fill="#37264D" stroke="#37264D" stroke-miterlimit="10" stroke-linecap="round" stroke-linejoin="round"/>
<path d="M373.31 195.572C373.31 195.572 358.327 206.345 348.045 217.409C337.763 228.473 325.425 240.702 324.837 244.487C324.249 248.272 325.425 254.095 331.301 247.98C337.177 241.865 348.045 233.713 356.272 233.131C364.498 232.548 377.13 236.624 383.594 237.498C390.057 238.372 394.17 240.118 396.52 236.624C398.869 233.131 392.701 225.27 392.701 221.192C392.701 217.115 393.582 210.127 390.645 205.178C387.705 200.23 378.304 194.115 373.31 195.572Z" fill="#757575" stroke="#37264D" stroke-miterlimit="10" stroke-linecap="round" stroke-linejoin="round"/>
<path d="M392.508 209.998C392.508 209.998 390.808 215.616 389.107 218.143C387.407 220.671 363.318 225.446 363.318 225.446C363.318 225.446 383.156 224.322 386.84 224.322C390.524 224.322 394.774 227.693 394.774 227.693L392.79 222.357C392.79 222.357 393.642 212.526 392.508 209.998Z" fill="#37264D" stroke="#37264D" stroke-miterlimit="10" stroke-linecap="round" stroke-linejoin="round"/>
<path d="M43.136 621.24H659.172" stroke="#37264D" stroke-miterlimit="10" stroke-linecap="round" stroke-linejoin="round"/>
</svg>
