<svg width="100" height="100" viewBox="0 0 100 100" fill="none" xmlns="http://www.w3.org/2000/svg">
<rect x="1.5" y="1.5" width="97" height="97" rx="48.5" fill="#212121" stroke="#F4ECFF" stroke-width="3"/>
<path d="M32.4741 39.8872C31.1125 39.8872 29.9038 40.1549 28.8481 40.6904C27.8078 41.2106 26.9281 41.9679 26.209 42.9624C25.5052 43.9569 24.9697 45.1579 24.6025 46.5654C24.2354 47.973 24.0518 49.5565 24.0518 51.3159C24.0518 53.6873 24.3424 55.7145 24.9238 57.3975C25.5205 59.0651 26.4385 60.3426 27.6777 61.23C28.917 62.1021 30.5158 62.5381 32.4741 62.5381C33.8358 62.5381 35.1974 62.3851 36.5591 62.0791C37.936 61.7731 39.4277 61.3371 41.0342 60.771V66.7378C39.5501 67.3498 38.089 67.7858 36.6509 68.0459C35.2127 68.3213 33.5986 68.459 31.8086 68.459C28.3509 68.459 25.5052 67.7476 23.2715 66.3247C21.0531 64.8866 19.4084 62.8823 18.3374 60.312C17.2664 57.7264 16.731 54.7124 16.731 51.27C16.731 48.7303 17.0752 46.4048 17.7637 44.2935C18.4521 42.1821 19.4619 40.3538 20.793 38.8086C22.124 37.2633 23.7687 36.07 25.7271 35.2285C27.6854 34.387 29.9344 33.9663 32.4741 33.9663C34.1418 33.9663 35.8094 34.1805 37.4771 34.6089C39.16 35.022 40.7664 35.5957 42.2964 36.3301L40.0015 42.1133C38.7469 41.5166 37.4847 40.9964 36.2148 40.5527C34.945 40.109 33.6981 39.8872 32.4741 39.8872ZM60.9899 68L52.9118 41.6772H52.7052C52.7358 42.3045 52.7817 43.2531 52.8429 44.5229C52.9194 45.7775 52.9883 47.1162 53.0495 48.5391C53.1107 49.9619 53.1413 51.2471 53.1413 52.3945V68H46.7843V34.4482H56.4689L64.4093 60.1055H64.547L72.9694 34.4482H82.654V68H76.0216V52.1191C76.0216 51.0635 76.0369 49.8472 76.0675 48.4702C76.1134 47.0933 76.167 45.7852 76.2282 44.5459C76.2894 43.2913 76.3353 42.3504 76.3659 41.7231H76.1593L67.5075 68H60.9899Z" fill="white"/>
</svg>
