<svg width="1440" height="565" viewBox="0 0 1440 565" fill="none" xmlns="http://www.w3.org/2000/svg">
<mask id="path-1-inside-1_383_270" fill="white">
<path fill-rule="evenodd" clip-rule="evenodd" d="M629.5 204.312C310.5 248.25 66.5 130.716 -1 0V459C133.171 621.578 411.465 560.136 647.931 507.93C681.115 500.603 713.477 493.459 744.5 487.141C854.613 464.715 952.56 488.879 1049.3 512.746C1173.99 543.508 1296.68 573.776 1440.84 503.163C1440.94 421.434 1441 340.489 1441 270.219C1263.11 97.0355 1043.32 134.916 792.598 178.129C739.581 187.267 685.18 196.643 629.5 204.312Z"/>
</mask>
<path fill-rule="evenodd" clip-rule="evenodd" d="M629.5 204.312C310.5 248.25 66.5 130.716 -1 0V459C133.171 621.578 411.465 560.136 647.931 507.93C681.115 500.603 713.477 493.459 744.5 487.141C854.613 464.715 952.56 488.879 1049.3 512.746C1173.99 543.508 1296.68 573.776 1440.84 503.163C1440.94 421.434 1441 340.489 1441 270.219C1263.11 97.0355 1043.32 134.916 792.598 178.129C739.581 187.267 685.18 196.643 629.5 204.312Z" fill="#FFBE5E"/>
<path d="M-1 0L-0.111473 -0.458825L-2 0H-1ZM629.5 204.312L629.364 203.321L629.364 203.321L629.5 204.312ZM-1 459H-2V459.359L-1.77127 459.637L-1 459ZM647.931 507.93L647.715 506.953L647.715 506.953L647.931 507.93ZM744.5 487.141L744.699 488.12L744.699 488.12L744.5 487.141ZM1049.3 512.746L1049.06 513.717L1049.06 513.717L1049.3 512.746ZM1440.84 503.163L1441.28 504.061L1441.84 503.787L1441.84 503.164L1440.84 503.163ZM1441 270.219H1442V269.797L1441.7 269.502L1441 270.219ZM792.598 178.129L792.768 179.115L792.598 178.129ZM-1.88853 0.458825C32.0169 66.1176 110.144 128.309 219.592 168.59C329.069 208.881 469.985 227.292 629.636 205.303L629.364 203.321C470.015 225.269 329.431 206.883 220.283 166.713C111.106 126.532 33.4831 64.598 -0.111473 -0.458825L-1.88853 0.458825ZM0 459V0H-2V459H0ZM-1.77127 459.637C65.5991 541.27 169.094 566.574 285.118 565.009C401.143 563.443 529.938 535.004 648.146 508.906L647.715 506.953C529.457 533.062 400.872 561.447 285.091 563.009C169.309 564.571 66.5718 539.307 -0.22873 458.363L-1.77127 459.637ZM648.146 508.906C681.333 501.579 713.686 494.437 744.699 488.12L744.3 486.161C713.268 492.481 680.898 499.627 647.715 506.953L648.146 508.906ZM744.699 488.12C854.561 465.746 952.298 489.845 1049.06 513.717L1049.54 511.775C952.822 487.914 854.664 463.684 744.3 486.161L744.699 488.12ZM1049.06 513.717C1173.74 544.475 1296.76 574.85 1441.28 504.061L1440.4 502.265C1296.6 572.701 1174.25 542.54 1049.54 511.775L1049.06 513.717ZM1440 270.219C1440 340.489 1439.94 421.433 1439.84 503.162L1441.84 503.164C1441.94 421.435 1442 340.49 1442 270.219H1440ZM792.768 179.115C1043.61 135.882 1262.84 98.1639 1440.3 270.936L1441.7 269.502C1263.39 95.9071 1043.04 133.951 792.429 177.144L792.768 179.115ZM629.636 205.303C685.336 197.631 739.753 188.252 792.768 179.115L792.429 177.144C739.409 186.282 685.024 195.655 629.364 203.321L629.636 205.303Z" fill="black" mask="url(#path-1-inside-1_383_270)"/>
</svg>
