<svg width="109" height="48" viewBox="0 0 109 48" fill="none" xmlns="http://www.w3.org/2000/svg">
<path d="M33.9577 20.0044C35.5431 20.0044 36.8966 19.4441 38.018 18.3234C39.1394 17.2028 39.7001 15.8503 39.7001 14.2659H17.7165C16.131 14.2659 14.7776 14.8262 13.6561 15.9468C12.5347 17.0675 11.974 18.42 11.974 20.0044V41.9728C13.5595 41.9728 14.9129 41.4125 16.0343 40.2918C17.1558 39.1712 17.7165 37.8187 17.7165 36.2343V20.0044H33.9577ZM64.8741 20.0237C66.4595 20.0237 67.8129 19.4634 68.9344 18.3427C70.0557 17.2221 70.6164 15.8631 70.6164 14.2659H48.6521C47.0538 14.2659 45.6939 14.8295 44.5725 15.9565C43.4511 17.0836 42.8904 18.4393 42.8904 20.0237V25.2598C42.8904 26.8441 43.4511 28.1966 44.5725 29.3173C45.6939 30.4379 47.0538 30.9982 48.6521 30.9982H64.8741V36.2343H48.6521C47.0538 36.2343 45.6939 36.7946 44.5725 37.9153C43.4511 39.0359 42.8904 40.3884 42.8904 41.9728H64.8741C66.4595 41.9728 67.8129 41.4125 68.9344 40.2918C70.0557 39.1712 70.6164 37.8187 70.6164 36.2343V30.9982C70.6164 29.4139 70.0557 28.0614 68.9344 26.9407C67.8129 25.8201 66.4595 25.2598 64.8741 25.2598H48.6521V20.0237H64.8741ZM88.8686 40.2918C89.9899 39.1712 90.5506 37.8187 90.5506 36.2343V20.0044C90.5506 18.42 89.9899 17.0675 88.8686 15.9468C87.7472 14.8262 86.3938 14.2659 84.8083 14.2659H77.7706C76.1721 14.2659 74.8122 14.8262 73.6908 15.9468C72.5695 17.0675 72.0088 18.42 72.0088 20.0044H84.8083V41.9728C86.3938 41.9728 87.7472 41.4125 88.8686 40.2918ZM101.765 18.3234C100.644 19.4441 99.2902 20.0044 97.7048 20.0044H91.7881V14.2659H103.447C103.447 15.8503 102.886 17.2028 101.765 18.3234ZM18.9539 25.7621H30.4001C30.4001 27.3465 29.8394 28.699 28.7179 29.8196C27.5965 30.9403 26.2431 31.5006 24.6576 31.5006H18.9539V25.7621Z" fill="#37264D"/>
<path fill-rule="evenodd" clip-rule="evenodd" d="M9.40375 41.9985H9.40315C9.31455 41.9985 9.22601 41.9963 9.13752 41.992C9.04902 41.9876 8.96069 41.9811 8.87252 41.9724C8.78434 41.9637 8.69644 41.9529 8.6088 41.9399C8.52116 41.9269 8.43389 41.9118 8.34699 41.8945C8.2601 41.8772 8.17368 41.8578 8.08773 41.8363C8.00179 41.8148 7.91642 41.7912 7.83163 41.7655C7.74685 41.7398 7.66275 41.712 7.57933 41.6822C7.49591 41.6524 7.41327 41.6205 7.33141 41.5866C7.24956 41.5528 7.16859 41.5169 7.08849 41.479C7.0084 41.4412 6.92928 41.4014 6.85115 41.3597C6.77301 41.3179 6.69594 41.2743 6.61995 41.2288C6.54395 41.1833 6.46912 41.1359 6.39546 41.0867C6.32179 41.0375 6.24937 40.9866 6.17821 40.9338C6.10704 40.8811 6.03722 40.8266 5.96873 40.7704C5.90024 40.7143 5.83317 40.6565 5.76752 40.597C5.70188 40.5376 5.63773 40.4766 5.57508 40.4139C5.51243 40.3513 5.45136 40.2872 5.39186 40.2216C5.33236 40.156 5.2745 40.089 5.2183 40.0206C5.16209 39.9521 5.1076 39.8824 5.05482 39.8112C5.00204 39.7401 4.95104 39.6677 4.90182 39.5941C4.8526 39.5205 4.80521 39.4457 4.75966 39.3698C4.71411 39.2938 4.67045 39.2168 4.62868 39.1387C4.58692 39.0606 4.5471 38.9816 4.50921 38.9015C4.47133 38.8215 4.43544 38.7406 4.40154 38.6588C4.36763 38.577 4.33575 38.4944 4.3059 38.411C4.27606 38.3277 4.24827 38.2437 4.22255 38.1589C4.19683 38.0742 4.17321 37.9889 4.15168 37.903C4.13016 37.8171 4.11075 37.7308 4.09346 37.6439C4.07618 37.5571 4.06104 37.4699 4.04804 37.3823C4.03504 37.2947 4.02419 37.2069 4.01551 37.1188C4.00683 37.0307 4.00031 36.9424 3.99596 36.854C3.99161 36.7656 3.98944 36.6771 3.98944 36.5885L3.98944 14.2403H3.99003C4.07863 14.2403 4.16718 14.2424 4.25567 14.2468C4.34416 14.2511 4.4325 14.2576 4.52067 14.2663C4.60884 14.275 4.69675 14.2858 4.78439 14.2988C4.87203 14.3118 4.9593 14.3269 5.0462 14.3442C5.1331 14.3615 5.21951 14.3809 5.30546 14.4024C5.3914 14.4239 5.47677 14.4475 5.56155 14.4732C5.64633 14.4989 5.73044 14.5267 5.81386 14.5565C5.89728 14.5863 5.97992 14.6182 6.06177 14.6521C6.14363 14.686 6.2246 14.7218 6.30469 14.7597C6.38479 14.7975 6.4639 14.8373 6.54204 14.8791C6.62018 14.9208 6.69724 14.9644 6.77324 15.0099C6.84923 15.0555 6.92406 15.1028 6.99773 15.152C7.0714 15.2012 7.14381 15.2522 7.21498 15.3049C7.28614 15.3576 7.35597 15.4121 7.42446 15.4682C7.49294 15.5244 7.56001 15.5822 7.62566 15.6417C7.69131 15.7012 7.75545 15.7622 7.81811 15.8248C7.88076 15.8874 7.94183 15.9515 8.00133 16.0171C8.06083 16.0827 8.11868 16.1498 8.17489 16.2182C8.2311 16.2866 8.28559 16.3564 8.33837 16.4275C8.39115 16.4986 8.44215 16.571 8.49137 16.6446C8.5406 16.7182 8.58798 16.793 8.63353 16.869C8.67908 16.9449 8.72274 17.0219 8.7645 17.1C8.80627 17.1781 8.84609 17.2571 8.88397 17.3371C8.92185 17.4172 8.95775 17.4981 8.99165 17.5799C9.02556 17.6617 9.05743 17.7443 9.08728 17.8277C9.11713 17.911 9.14492 17.9951 9.17063 18.0798C9.19635 18.1645 9.21998 18.2498 9.24151 18.3357C9.26303 18.4216 9.28244 18.5079 9.29972 18.5948C9.31701 18.6816 9.33215 18.7688 9.34515 18.8564C9.35815 18.944 9.36899 19.0319 9.37768 19.12C9.38636 19.2081 9.39288 19.2963 9.39723 19.3847C9.40157 19.4732 9.40375 19.5617 9.40375 19.6502V41.9985Z" fill="#37264D"/>
<path fill-rule="evenodd" clip-rule="evenodd" d="M72.1208 6.32468C72.1208 6.42132 72.1232 6.5185 72.1279 6.61503C72.1326 6.71156 72.1397 6.80792 72.1492 6.9041C72.1586 7.00028 72.1704 7.09617 72.1846 7.19177C72.1988 7.28737 72.2154 7.38257 72.2343 7.47736C72.2532 7.57214 72.2743 7.66641 72.2975 7.76017C72.3211 7.85391 72.3469 7.94703 72.3749 8.03952C72.4029 8.132 72.4332 8.22374 72.4659 8.31474C72.4986 8.40574 72.5335 8.49588 72.5705 8.58517C72.6076 8.67446 72.6468 8.76279 72.6882 8.85015C72.7295 8.93752 72.7729 9.02383 72.8182 9.10906C72.8639 9.19429 72.9116 9.27836 72.9612 9.36125C73.0108 9.44415 73.0627 9.52578 73.1166 9.60614C73.1702 9.6865 73.2258 9.76549 73.2833 9.84312C73.3412 9.92074 73.4007 9.99691 73.4618 10.0716C73.5233 10.1463 73.5865 10.2195 73.6515 10.2911C73.7165 10.3627 73.7831 10.4327 73.8513 10.501C73.9198 10.5694 73.99 10.636 74.0617 10.7009C74.1334 10.7658 74.2065 10.8289 74.2809 10.8902C74.3558 10.9515 74.432 11.011 74.5097 11.0685C74.5873 11.1261 74.6663 11.1817 74.7466 11.2354C74.8274 11.2891 74.9092 11.3408 74.9919 11.3905C75.0751 11.4402 75.1592 11.4878 75.2443 11.5334C75.3298 11.5789 75.4163 11.6224 75.5037 11.6637C75.5908 11.705 75.6791 11.7442 75.7685 11.7812C75.8579 11.8181 75.9482 11.8529 76.0392 11.8855C76.1302 11.918 76.222 11.9483 76.3146 11.9764C76.4072 12.0044 76.5004 12.0302 76.5941 12.0537C76.6879 12.0772 76.7823 12.0984 76.8772 12.1172C76.9722 12.1361 77.0675 12.1526 77.1633 12.1668C77.2586 12.181 77.3546 12.1928 77.4511 12.2023C77.5472 12.2117 77.6436 12.2188 77.7401 12.2236C77.8366 12.2283 77.9334 12.2307 78.0303 12.2307H103.444C103.444 12.134 103.442 12.0368 103.437 11.9403C103.433 11.8438 103.425 11.7474 103.415 11.6512C103.406 11.5551 103.394 11.4592 103.38 11.3636C103.366 11.268 103.349 11.1728 103.331 11.078C103.312 10.9832 103.291 10.8889 103.267 10.7952C103.243 10.7014 103.218 10.6083 103.19 10.5158C103.162 10.4234 103.131 10.3316 103.099 10.2406C103.066 10.1496 103.031 10.0595 102.995 9.97019C102.958 9.8809 102.918 9.79257 102.877 9.7052C102.836 9.61783 102.792 9.53153 102.746 9.44629C102.701 9.36106 102.653 9.27699 102.603 9.1941C102.554 9.11121 102.502 9.02958 102.448 8.94922C102.394 8.86886 102.339 8.78987 102.281 8.71224C102.224 8.63461 102.164 8.55844 102.103 8.48373C102.041 8.40903 101.978 8.33587 101.913 8.26426C101.848 8.19265 101.782 8.12267 101.713 8.05433C101.645 7.98599 101.575 7.91937 101.503 7.85447C101.432 7.78956 101.358 7.72646 101.284 7.66514C101.209 7.60383 101.132 7.54439 101.055 7.48682C100.977 7.42925 100.898 7.37361 100.818 7.31992C100.737 7.26622 100.656 7.21453 100.573 7.16485C100.49 7.11516 100.406 7.06754 100.32 7.02198C100.235 6.97642 100.149 6.93298 100.061 6.89166C99.9739 6.85034 99.8855 6.81118 99.796 6.7742C99.7066 6.73721 99.6164 6.70244 99.5253 6.66988C99.4343 6.63732 99.3425 6.60702 99.2499 6.57896C99.1573 6.55091 99.0642 6.52514 98.9704 6.50166C98.8766 6.47817 98.7822 6.457 98.6873 6.43815C98.5927 6.41929 98.4976 6.40277 98.4018 6.38859C98.3061 6.37441 98.2101 6.36259 98.114 6.35311C98.0175 6.34364 97.9209 6.33653 97.8244 6.33179C97.7279 6.32705 97.6313 6.32468 97.5348 6.32468H72.1208Z" fill="#37264D"/>
</svg>
