<?xml version="1.0" encoding="UTF-8" standalone="no"?>
<svg
   width="1000"
   height="500"
   viewBox="0 0 999.99999 500"
   version="1.1"
   id="svg8"
   sodipodi:docname="logofst.svg"
   inkscape:version="1.3 (0e150ed6c4, 2023-07-21)"
   inkscape:export-filename="logofst.png"
   inkscape:export-xdpi="96"
   inkscape:export-ydpi="96"
   xmlns:inkscape="http://www.inkscape.org/namespaces/inkscape"
   xmlns:sodipodi="http://sodipodi.sourceforge.net/DTD/sodipodi-0.dtd"
   xmlns="http://www.w3.org/2000/svg"
   xmlns:svg="http://www.w3.org/2000/svg">
  <defs
     id="defs12" />
  <sodipodi:namedview
     id="namedview10"
     pagecolor="#ffffff"
     bordercolor="#666666"
     borderopacity="1.0"
     inkscape:showpageshadow="2"
     inkscape:pageopacity="0.0"
     inkscape:pagecheckerboard="0"
     inkscape:deskcolor="#d1d1d1"
     showgrid="false"
     inkscape:zoom="0.33127554"
     inkscape:cx="661.0811"
     inkscape:cy="644.47861"
     inkscape:window-width="1902"
     inkscape:window-height="1013"
     inkscape:window-x="0"
     inkscape:window-y="0"
     inkscape:window-maximized="0"
     inkscape:current-layer="Group-9" />
  <g
     id="Group-9"
     transform="matrix(0.94742131,0,0,0.94742131,6.2640305,8.6324187)"
     style="fill:#757575;fill-opacity:1">
    <g
       id="g1"
       transform="translate(0,56.996812)">
      <g
         id="Fst"
         fill="#757575"
         transform="matrix(6.1877057,0,0,6.1877057,63.757841,-8.2868665)"
         style="fill:#757575;fill-opacity:1">
        <path
           d="m 40.4028,24.7598 q 4.024,0 6.8701,-2.8462 2.8462,-2.8462 2.8462,-6.8701 H 12.9224 q -4.02396,0 -6.87015,2.8461 -2.8462,2.8462 -2.8462,6.8702 v 37.1967 q 4.02393,0 6.87015,-2.8461 2.8462,-2.8462 2.8462,-6.8702 V 24.7598 Z m 52.3111,0.0327 q 4.0239,0 6.8701,-2.8462 2.846,-2.8462 2.846,-6.9028 H 65.2661 q -4.0566,0 -6.9028,2.8625 -2.8462,2.8626 -2.8462,6.8865 v 8.8657 q 0,4.0239 2.8462,6.8701 2.8462,2.8462 6.9028,2.8462 h 27.4478 v 8.8657 H 65.2661 q -4.0566,0 -6.9028,2.8462 -2.8462,2.8462 -2.8462,6.8701 h 37.1968 q 4.0239,0 6.8701,-2.8461 2.846,-2.8462 2.846,-6.8702 v -8.8657 q 0,-4.0239 -2.846,-6.8701 -2.8462,-2.8462 -6.8701,-2.8462 H 65.2661 v -8.8657 z m 40.5991,34.3179 q 2.846,-2.8462 2.846,-6.8702 V 24.7598 q 0,-4.024 -2.846,-6.8702 -2.846,-2.8461 -6.87,-2.8461 h -11.908 q -4.057,0 -6.903,2.8461 -2.846,2.8462 -2.846,6.8702 h 21.657 v 37.1967 q 4.024,0 6.87,-2.8461 z m 21.821,-37.1968 q -2.846,2.8462 -6.87,2.8462 h -10.011 v -9.7163 h 19.727 q 0,4.0239 -2.846,6.8701 z M 15.0161,34.5088 h 19.3672 q 0,4.0239 -2.8462,6.8701 -2.8462,2.8462 -6.8701,2.8462 h -9.6509 z"
           id="path2"
           style="fill:#757575;fill-opacity:1" />
      </g>
      <path
         d="m 56.686191,375.35089 h -0.0062 q -1.391429,0 -2.781126,-0.0681 -1.389759,-0.0687 -2.774505,-0.20481 -1.384685,-0.13675 -2.761079,-0.34094 -1.376331,-0.2042 -2.741029,-0.47522 -1.364637,-0.27164 -2.714361,-0.60949 -1.349725,-0.33847 -2.681257,-0.7419 -1.33147,-0.40406 -2.641593,-0.87309 -1.310061,-0.46841 -2.595557,-1.00117 -1.285496,-0.53214 -2.543333,-1.1274 -1.257837,-0.59464 -2.484921,-1.25053 -1.227145,-0.6559 -2.420568,-1.3712 -1.193485,-0.7153 -2.3504,-1.48876 -1.156916,-0.77285 -2.274539,-1.602 -1.117562,-0.82853 -2.19317,-1.71152 -1.075547,-0.88237 -2.106543,-1.81671 -1.030934,-0.93434 -2.014841,-1.91819 -0.983845,-0.98384 -1.918312,-2.01533 -0.934406,-1.03088 -1.817082,-2.1063 -0.882738,-1.07542 -1.711581,-2.19292 -0.828905,-1.11812 -1.6018734,-2.2746 Q 8.7792905,349.00361 8.0639298,347.81 7.3485812,346.61642 6.6926844,345.3894 6.0367938,344.16238 5.441883,342.90442 4.8469784,341.64707 4.3145077,340.36127 3.7820371,339.07608 3.3132813,337.76553 2.8445254,336.45559 2.440623,335.12399 2.0367143,333.7924 1.6986304,332.44286 1.3605404,331.09332 1.0890919,329.72831 0.81763724,328.36393 0.61347513,326.98778 0.4093124,325.61102 0.2729298,324.22621 0.1365472,322.84202 0.06827329,321.45226 0,320.0625 0,318.67088 L 1.180212e-5,84.528719 H 0.006202 q 1.3914151,0 2.7811552,0.06807 1.3897402,0.06868 2.7744559,0.204813 1.384691,0.136129 2.7610842,0.340324 1.3763314,0.204194 2.7410297,0.475834 1.364699,0.271641 2.714361,0.609489 1.349724,0.338468 2.681257,0.741906 1.33147,0.404057 2.641593,0.873086 1.310061,0.468409 2.595557,1.00117 1.285496,0.532143 2.543333,1.1274 1.257837,0.594639 2.48492,1.250536 1.227146,0.655896 2.420569,1.371195 1.193485,0.715299 2.3504,1.488762 1.156915,0.772845 2.274539,1.601378 1.117561,0.829153 2.19317,1.71152 1.075547,0.882985 2.106543,1.817329 1.030933,0.934339 2.014841,1.918179 0.983907,0.98385 1.918312,2.01472 0.934405,1.03149 1.817082,2.10692 0.882738,1.07542 1.711581,2.19292 0.828905,1.1175 1.601935,2.2746 0.77303,1.1571 1.488329,2.35071 0.715361,1.19299 1.371257,2.42063 0.655897,1.22702 1.250783,2.48436 0.594948,1.25796 1.1274,2.54377 0.532452,1.28519 1.001233,2.59574 0.46878,1.30994 0.872652,2.64153 0.403933,1.33098 0.74203,2.68114 0.338034,1.34953 0.609489,2.71392 0.271454,1.36501 0.475649,2.74116 0.204132,1.37676 0.340509,2.76157 0.136439,1.38419 0.204689,2.77395 0.06825,1.38976 0.06825,2.78138 z"
         id="Rectangle-Copy-2"
         fill="#757575"
         fill-rule="evenodd"
         stroke="none"
         style="fill:#757575;fill-opacity:1;stroke-width:6.18771" />
      <path
         d="m 713.31506,1.5974049 v 0.00619 q 0,1.5188342 0.0743,3.0358741 0.0743,1.5169779 0.22275,3.0285106 0.14851,1.5115328 0.37127,3.0139694 0.22275,1.502375 0.51976,2.992065 0.29701,1.489628 0.66209,2.962983 0.37126,1.473293 0.81059,2.926785 0.43932,1.45343 0.9529,2.883471 0.51358,1.43004 1.09523,2.833288 0.58164,1.403248 1.23135,2.776238 0.64971,1.373052 1.3613,2.712566 0.71777,1.339453 1.49742,2.642213 0.77965,1.302759 1.62737,2.56567 0.84153,1.262849 1.74493,2.482817 0.90959,1.219906 1.86869,2.394023 0.96528,1.174056 1.98625,2.299475 1.02097,1.125357 2.09145,2.199357 1.07666,1.074 2.20282,2.093981 1.12616,1.019982 2.29564,1.983531 1.17566,0.96355 2.39464,1.868316 1.21898,0.904766 2.48127,1.748584 1.26848,0.84382 2.5679,1.624708 1.3056,0.780827 2.64215,1.496806 1.34273,0.71598 2.7164,1.365441 1.36748,0.64909 2.77209,1.230735 1.40461,0.581025 2.83397,1.092749 1.42936,0.511723 2.88347,0.952288 1.45411,0.441183 2.92679,0.80997 1.47267,0.369406 2.96391,0.665797 1.49124,0.296391 2.99485,0.519149 1.49742,0.222757 3.01341,0.371881 1.5098,0.148505 3.02579,0.223376 1.51599,0.07425 3.03816,0.07425 h 266.07753 v -0.0062 q 0,-1.519082 -0.074,-3.035688 -0.074,-1.517226 -0.2289,-3.028882 -0.1485,-1.511348 -0.3713,-3.013784 -0.2228,-1.502378 -0.5136,-2.992068 -0.297,-1.489628 -0.6682,-2.962983 -0.3713,-1.473354 -0.8106,-2.926785 -0.4394,-1.453428 -0.9529,-2.883469 -0.5136,-1.430102 -1.0891,-2.833288 -0.5816,-1.403248 -1.2313,-2.776238 -0.6497,-1.373052 -1.3675,-2.712567 -0.7178,-1.339514 -1.4974,-2.642212 -0.7797,-1.302759 -1.6212,-2.56567 -0.8477,-1.262849 -1.7511,-2.482817 -0.9034,-1.219968 -1.8687,-2.394023 -0.9653,-1.174056 -1.9863,-2.299476 -1.0148,-1.125358 -2.0914,-2.199358 -1.0767,-1.074 -2.1967,-2.093981 -1.1261,-1.019982 -2.3018,-1.983531 -1.1756,-0.96355 -2.3946,-1.868316 -1.219,-0.904766 -2.4813,-1.748584 -1.2623,-0.843879 -2.5679,-1.624706 -1.2994,-0.7808259 -2.6421,-1.4968053 -1.3366,-0.7159794 -2.7103,-1.3653791 -1.3736,-0.6493998 -2.7782,-1.230611 -1.4047,-0.581273 -2.834,-1.0929344 -1.42933,-0.5116614 -2.88344,-0.9525973 -1.45411,-0.440874 -2.92679,-0.8099088 -1.47267,-0.3690348 -2.96391,-0.665364 -1.48505,-0.2963292 -2.98866,-0.5192104 -1.50361,-0.2228193 -3.01341,-0.3716955 -1.51599,-0.1488762 -3.03198,-0.223438 -1.51599,-0.0745 -3.03197,-0.0745 z"
         id="Rectangle-Copy-3"
         fill="#757575"
         fill-rule="evenodd"
         stroke="none"
         style="fill:#757575;fill-opacity:1;stroke-width:6.18771" />
    </g>
  </g>
</svg>
